<svg xmlns="http://www.w3.org/2000/svg" viewBox="0 0 800 300" fill="none">
  <defs>
    <radialGradient id="glow" cx="28%" cy="50%" r="30%">
      <stop offset="0%" stop-color="#d97757" stop-opacity="0.08"/>
      <stop offset="100%" stop-color="#141413" stop-opacity="0"/>
    </radialGradient>
    <clipPath id="rounded">
      <rect width="800" height="300" rx="12"/>
    </clipPath>
  </defs>

  <g clip-path="url(#rounded)">
    <!-- Background -->
    <rect width="800" height="300" fill="#141413"/>
    <rect width="800" height="300" fill="url(#glow)"/>

    <!-- ===== LEFT: PIXEL FISH ===== -->
    <g transform="translate(155, 80) scale(2.2)">

      <!-- Tail fin -->
      <g fill="#c96a47">
        <rect x="0" y="16" width="5" height="5"/>
        <rect x="-5" y="21" width="5" height="5"/>
        <rect x="0" y="21" width="5" height="5"/>
        <rect x="-5" y="26" width="5" height="5"/>
        <rect x="0" y="26" width="5" height="5"/>
        <rect x="-5" y="31" width="5" height="5"/>
        <rect x="0" y="31" width="5" height="5"/>
        <rect x="-5" y="36" width="5" height="5"/>
        <rect x="0" y="36" width="5" height="5"/>
        <rect x="0" y="41" width="5" height="5"/>
      </g>

      <!-- Fish body -->
      <g fill="#d97757">
        <!-- Row 1 -->
        <rect x="25" y="6" width="5" height="5"/>
        <rect x="30" y="6" width="5" height="5"/>
        <rect x="35" y="6" width="5" height="5"/>
        <!-- Row 2 -->
        <rect x="15" y="11" width="5" height="5"/>
        <rect x="20" y="11" width="5" height="5"/>
        <rect x="25" y="11" width="5" height="5"/>
        <rect x="30" y="11" width="5" height="5"/>
        <rect x="35" y="11" width="5" height="5"/>
        <rect x="40" y="11" width="5" height="5"/>
        <rect x="45" y="11" width="5" height="5"/>
        <rect x="50" y="11" width="5" height="5"/>
        <!-- Row 3 -->
        <rect x="10" y="16" width="5" height="5"/>
        <rect x="15" y="16" width="5" height="5"/>
        <rect x="20" y="16" width="5" height="5"/>
        <rect x="25" y="16" width="5" height="5"/>
        <rect x="30" y="16" width="5" height="5"/>
        <rect x="35" y="16" width="5" height="5"/>
        <rect x="40" y="16" width="5" height="5"/>
        <rect x="45" y="16" width="5" height="5"/>
        <rect x="50" y="16" width="5" height="5"/>
        <rect x="55" y="16" width="5" height="5"/>
        <rect x="60" y="16" width="5" height="5"/>
        <!-- Row 4 -->
        <rect x="5" y="21" width="5" height="5"/>
        <rect x="10" y="21" width="5" height="5"/>
        <rect x="15" y="21" width="5" height="5"/>
        <rect x="20" y="21" width="5" height="5"/>
        <rect x="25" y="21" width="5" height="5"/>
        <rect x="30" y="21" width="5" height="5"/>
        <rect x="35" y="21" width="5" height="5"/>
        <rect x="40" y="21" width="5" height="5"/>
        <rect x="45" y="21" width="5" height="5"/>
        <rect x="50" y="21" width="5" height="5"/>
        <rect x="55" y="21" width="5" height="5"/>
        <rect x="60" y="21" width="5" height="5"/>
        <rect x="65" y="21" width="5" height="5"/>
        <!-- Row 5 -->
        <rect x="5" y="26" width="5" height="5"/>
        <rect x="10" y="26" width="5" height="5"/>
        <rect x="15" y="26" width="5" height="5"/>
        <rect x="20" y="26" width="5" height="5"/>
        <rect x="25" y="26" width="5" height="5"/>
        <rect x="30" y="26" width="5" height="5"/>
        <rect x="35" y="26" width="5" height="5"/>
        <rect x="40" y="26" width="5" height="5"/>
        <rect x="45" y="26" width="5" height="5"/>
        <rect x="50" y="26" width="5" height="5"/>
        <rect x="55" y="26" width="5" height="5"/>
        <rect x="60" y="26" width="5" height="5"/>
        <rect x="65" y="26" width="5" height="5"/>
        <!-- Row 6 -->
        <rect x="5" y="31" width="5" height="5"/>
        <rect x="10" y="31" width="5" height="5"/>
        <rect x="15" y="31" width="5" height="5"/>
        <rect x="20" y="31" width="5" height="5"/>
        <rect x="25" y="31" width="5" height="5"/>
        <rect x="30" y="31" width="5" height="5"/>
        <rect x="35" y="31" width="5" height="5"/>
        <rect x="40" y="31" width="5" height="5"/>
        <rect x="45" y="31" width="5" height="5"/>
        <rect x="50" y="31" width="5" height="5"/>
        <rect x="55" y="31" width="5" height="5"/>
        <rect x="60" y="31" width="5" height="5"/>
        <!-- Row 7 -->
        <rect x="5" y="36" width="5" height="5"/>
        <rect x="10" y="36" width="5" height="5"/>
        <rect x="15" y="36" width="5" height="5"/>
        <rect x="20" y="36" width="5" height="5"/>
        <rect x="25" y="36" width="5" height="5"/>
        <rect x="30" y="36" width="5" height="5"/>
        <rect x="35" y="36" width="5" height="5"/>
        <rect x="40" y="36" width="5" height="5"/>
        <rect x="45" y="36" width="5" height="5"/>
        <rect x="50" y="36" width="5" height="5"/>
        <rect x="55" y="36" width="5" height="5"/>
        <!-- Row 8 -->
        <rect x="10" y="41" width="5" height="5"/>
        <rect x="15" y="41" width="5" height="5"/>
        <rect x="20" y="41" width="5" height="5"/>
        <rect x="25" y="41" width="5" height="5"/>
        <rect x="30" y="41" width="5" height="5"/>
        <rect x="35" y="41" width="5" height="5"/>
        <rect x="40" y="41" width="5" height="5"/>
        <rect x="45" y="41" width="5" height="5"/>
        <rect x="50" y="41" width="5" height="5"/>
        <!-- Row 9 -->
        <rect x="20" y="46" width="5" height="5"/>
        <rect x="25" y="46" width="5" height="5"/>
        <rect x="30" y="46" width="5" height="5"/>
        <rect x="35" y="46" width="5" height="5"/>
        <rect x="40" y="46" width="5" height="5"/>
      </g>

      <!-- Dorsal fin -->
      <g fill="#c96a47">
        <rect x="30" y="1" width="5" height="5"/>
        <rect x="35" y="1" width="5" height="5"/>
      </g>

      <!-- Belly highlight -->
      <g fill="#e8a882" opacity="0.5">
        <rect x="20" y="36" width="5" height="5"/>
        <rect x="25" y="36" width="5" height="5"/>
        <rect x="30" y="36" width="5" height="5"/>
        <rect x="35" y="36" width="5" height="5"/>
        <rect x="40" y="36" width="5" height="5"/>
        <rect x="25" y="41" width="5" height="5"/>
        <rect x="30" y="41" width="5" height="5"/>
        <rect x="35" y="41" width="5" height="5"/>
      </g>

      <!-- Eye -->
      <rect x="50" y="16" width="10" height="10" fill="#faf9f5"/>
      <rect x="55" y="16" width="5" height="5" fill="#141413"/>

      <!-- Mouth -->
      <rect x="60" y="31" width="5" height="5" fill="#c96a47"/>
      <rect x="55" y="36" width="5" height="5" fill="#c96a47"/>

      <!-- Pixel zzz -->
      <g fill="#faf9f5" opacity="0.4">
        <!-- z1 -->
        <rect x="68" y="8" width="5" height="2"/>
        <rect x="73" y="8" width="5" height="2"/>
        <rect x="73" y="10" width="5" height="2"/>
        <rect x="68" y="12" width="5" height="2"/>
        <rect x="68" y="14" width="5" height="2"/>
        <rect x="73" y="14" width="5" height="2"/>
        <!-- z2 -->
        <rect x="78" y="-1" width="4" height="2"/>
        <rect x="82" y="-1" width="4" height="2"/>
        <rect x="82" y="1" width="4" height="2"/>
        <rect x="78" y="3" width="4" height="2"/>
        <rect x="78" y="5" width="4" height="2"/>
        <rect x="82" y="5" width="4" height="2"/>
        <!-- z3 -->
        <rect x="86" y="-8" width="3" height="2"/>
        <rect x="89" y="-8" width="3" height="2"/>
        <rect x="89" y="-6" width="3" height="2"/>
        <rect x="86" y="-4" width="3" height="2"/>
        <rect x="86" y="-2" width="3" height="2"/>
        <rect x="89" y="-2" width="3" height="2"/>
      </g>

      <!-- Water bubbles -->
      <g fill="#6a9bcc" opacity="0.3">
        <rect x="68" y="42" width="3" height="3" rx="1"/>
        <rect x="74" y="36" width="2" height="2" rx="1"/>
      </g>
    </g>

    <!-- ===== RIGHT: TEXT ===== -->

    <!-- Title -->
    <text x="440" y="118" font-family="'Noto Sans SC', 'PingFang SC', 'Hiragino Sans GB', sans-serif"
          font-size="56" font-weight="700" fill="#faf9f5">摸鱼</text>

    <!-- Subtitle -->
    <text x="442" y="150" font-family="Arial, Helvetica, sans-serif"
          font-size="18" font-weight="400" fill="#d97757" letter-spacing="2">Moyu</text>

    <!-- Tagline -->
    <text x="442" y="180" font-family="Georgia, serif"
          font-size="13" fill="#b0aea5" font-style="italic">Make your AI grind. So you don't have to.</text>

    <!-- Stats row -->
    <g transform="translate(442, 216)" font-family="Arial, Helvetica, sans-serif">
      <text x="0" y="0" font-size="18" font-weight="700" fill="#d97757">-50%</text>
      <text x="46" y="0" font-size="11" fill="#b0aea5">OE signals</text>

      <circle cx="112" cy="-3" r="1.2" fill="#e8e6dc" opacity="0.3"/>

      <text x="124" y="0" font-size="18" font-weight="700" fill="#6a9bcc">12</text>
      <text x="146" y="0" font-size="11" fill="#b0aea5">platforms</text>

      <circle cx="212" cy="-3" r="1.2" fill="#e8e6dc" opacity="0.3"/>

      <text x="224" y="0" font-size="18" font-weight="700" fill="#788c5d">5</text>
      <text x="238" y="0" font-size="11" fill="#b0aea5">languages</text>
    </g>

    <!-- ===== BACKGROUND: code lines being reduced ===== -->
    <g opacity="0.04" stroke="#d97757" stroke-width="1" stroke-linecap="round">
      <line x1="56" y1="60" x2="150" y2="60"/>
      <line x1="56" y1="72" x2="136" y2="72"/>
      <line x1="56" y1="84" x2="160" y2="84"/>
      <line x1="56" y1="96" x2="120" y2="96"/>
      <line x1="56" y1="108" x2="145" y2="108"/>
      <line x1="56" y1="120" x2="130" y2="120"/>
      <line x1="56" y1="132" x2="155" y2="132"/>
      <line x1="56" y1="144" x2="115" y2="144"/>
      <line x1="56" y1="156" x2="140" y2="156"/>
      <line x1="56" y1="168" x2="125" y2="168"/>
      <line x1="56" y1="180" x2="150" y2="180"/>
      <line x1="56" y1="192" x2="135" y2="192"/>
      <line x1="56" y1="204" x2="145" y2="204"/>
      <line x1="56" y1="216" x2="110" y2="216"/>
      <line x1="56" y1="228" x2="155" y2="228"/>
    </g>

    <g opacity="0.04" stroke="#788c5d" stroke-width="1" stroke-linecap="round">
      <line x1="660" y1="112" x2="740" y2="112"/>
      <line x1="660" y1="124" x2="725" y2="124"/>
      <line x1="660" y1="136" x2="750" y2="136"/>
      <line x1="660" y1="148" x2="715" y2="148"/>
      <line x1="660" y1="160" x2="735" y2="160"/>
    </g>
  </g>
</svg>
