<?xml version="1.0" encoding="utf-8" standalone="no"?>
<!DOCTYPE svg PUBLIC "-//W3C//DTD SVG 1.1//EN"
  "http://www.w3.org/Graphics/SVG/1.1/DTD/svg11.dtd">
<svg xmlns:xlink="http://www.w3.org/1999/xlink" width="615.042187pt" height="349.911063pt" viewBox="0 0 615.042187 349.911063" xmlns="http://www.w3.org/2000/svg" version="1.1">
 <metadata>
  <rdf:RDF xmlns:dc="http://purl.org/dc/elements/1.1/" xmlns:cc="http://creativecommons.org/ns#" xmlns:rdf="http://www.w3.org/1999/02/22-rdf-syntax-ns#">
   <cc:Work>
    <dc:type rdf:resource="http://purl.org/dc/dcmitype/StillImage"/>
    <dc:date>2026-03-30T20:34:43.537162</dc:date>
    <dc:format>image/svg+xml</dc:format>
    <dc:creator>
     <cc:Agent>
      <dc:title>Matplotlib v3.9.4, https://matplotlib.org/</dc:title>
     </cc:Agent>
    </dc:creator>
   </cc:Work>
  </rdf:RDF>
 </metadata>
 <defs>
  <style type="text/css">*{stroke-linejoin: round; stroke-linecap: butt}</style>
 </defs>
 <g id="figure_1">
  <g id="patch_1">
   <path d="M 0 349.911063 
L 615.042187 349.911063 
L 615.042187 0 
L 0 0 
z
" style="fill: #ffffff"/>
  </g>
  <g id="axes_1">
   <g id="patch_2">
    <path d="M 49.842188 300.429937 
L 607.842188 300.429937 
L 607.842188 23.229938 
L 49.842188 23.229938 
z
" style="fill: #ffffff"/>
   </g>
   <g id="patch_3">
    <path d="M 75.205824 300.429937 
L 83.01002 300.429937 
L 83.01002 67.104325 
L 75.205824 67.104325 
z
" clip-path="url(#p7e4feadb7e)" style="fill: #9c9a91; opacity: 0.85"/>
   </g>
   <g id="patch_4">
    <path d="M 127.233796 300.429937 
L 135.037992 300.429937 
L 135.037992 64.868223 
L 127.233796 64.868223 
z
" clip-path="url(#p7e4feadb7e)" style="fill: #9c9a91; opacity: 0.85"/>
   </g>
   <g id="patch_5">
    <path d="M 179.261768 300.429937 
L 187.065964 300.429937 
L 187.065964 63.959702 
L 179.261768 63.959702 
z
" clip-path="url(#p7e4feadb7e)" style="fill: #9c9a91; opacity: 0.85"/>
   </g>
   <g id="patch_6">
    <path d="M 231.28974 300.429937 
L 239.093936 300.429937 
L 239.093936 68.029608 
L 231.28974 68.029608 
z
" clip-path="url(#p7e4feadb7e)" style="fill: #9c9a91; opacity: 0.85"/>
   </g>
   <g id="patch_7">
    <path d="M 283.317712 300.429937 
L 291.121908 300.429937 
L 291.121908 54.674685 
L 283.317712 54.674685 
z
" clip-path="url(#p7e4feadb7e)" style="fill: #9c9a91; opacity: 0.85"/>
   </g>
   <g id="patch_8">
    <path d="M 335.345684 300.429937 
L 343.14988 300.429937 
L 343.14988 66.950111 
L 335.345684 66.950111 
z
" clip-path="url(#p7e4feadb7e)" style="fill: #9c9a91; opacity: 0.85"/>
   </g>
   <g id="patch_9">
    <path d="M 387.373656 300.429937 
L 395.177852 300.429937 
L 395.177852 69.263319 
L 387.373656 69.263319 
z
" clip-path="url(#p7e4feadb7e)" style="fill: #9c9a91; opacity: 0.85"/>
   </g>
   <g id="patch_10">
    <path d="M 439.401628 300.429937 
L 447.205824 300.429937 
L 447.205824 66.165022 
L 439.401628 66.165022 
z
" clip-path="url(#p7e4feadb7e)" style="fill: #9c9a91; opacity: 0.85"/>
   </g>
   <g id="patch_11">
    <path d="M 491.4296 300.429937 
L 499.233796 300.429937 
L 499.233796 73.658415 
L 491.4296 73.658415 
z
" clip-path="url(#p7e4feadb7e)" style="fill: #9c9a91; opacity: 0.85"/>
   </g>
   <g id="patch_12">
    <path d="M 543.457572 300.429937 
L 551.261768 300.429937 
L 551.261768 65.870614 
L 543.457572 65.870614 
z
" clip-path="url(#p7e4feadb7e)" style="fill: #9c9a91; opacity: 0.85"/>
   </g>
   <g id="patch_13">
    <path d="M 83.01002 300.429937 
L 90.814215 300.429937 
L 90.814215 66.71879 
L 83.01002 66.71879 
z
" clip-path="url(#p7e4feadb7e)" style="fill: #6a9bcc; opacity: 0.85"/>
   </g>
   <g id="patch_14">
    <path d="M 135.037992 300.429937 
L 142.842187 300.429937 
L 142.842187 67.181432 
L 135.037992 67.181432 
z
" clip-path="url(#p7e4feadb7e)" style="fill: #6a9bcc; opacity: 0.85"/>
   </g>
   <g id="patch_15">
    <path d="M 187.065964 300.429937 
L 194.87016 300.429937 
L 194.87016 69.109105 
L 187.065964 69.109105 
z
" clip-path="url(#p7e4feadb7e)" style="fill: #6a9bcc; opacity: 0.85"/>
   </g>
   <g id="patch_16">
    <path d="M 239.093936 300.429937 
L 246.898132 300.429937 
L 246.898132 69.417533 
L 239.093936 69.417533 
z
" clip-path="url(#p7e4feadb7e)" style="fill: #6a9bcc; opacity: 0.85"/>
   </g>
   <g id="patch_17">
    <path d="M 291.121908 300.429937 
L 298.926104 300.429937 
L 298.926104 62.076952 
L 291.121908 62.076952 
z
" clip-path="url(#p7e4feadb7e)" style="fill: #6a9bcc; opacity: 0.85"/>
   </g>
   <g id="patch_18">
    <path d="M 343.14988 300.429937 
L 350.954076 300.429937 
L 350.954076 70.574137 
L 343.14988 70.574137 
z
" clip-path="url(#p7e4feadb7e)" style="fill: #6a9bcc; opacity: 0.85"/>
   </g>
   <g id="patch_19">
    <path d="M 395.177852 300.429937 
L 402.982048 300.429937 
L 402.982048 68.569357 
L 395.177852 68.569357 
z
" clip-path="url(#p7e4feadb7e)" style="fill: #6a9bcc; opacity: 0.85"/>
   </g>
   <g id="patch_20">
    <path d="M 447.205824 300.429937 
L 455.01002 300.429937 
L 455.01002 69.189565 
L 447.205824 69.189565 
z
" clip-path="url(#p7e4feadb7e)" style="fill: #6a9bcc; opacity: 0.85"/>
   </g>
   <g id="patch_21">
    <path d="M 499.233796 300.429937 
L 507.037992 300.429937 
L 507.037992 66.564576 
L 499.233796 66.564576 
z
" clip-path="url(#p7e4feadb7e)" style="fill: #6a9bcc; opacity: 0.85"/>
   </g>
   <g id="patch_22">
    <path d="M 551.261768 300.429937 
L 559.065964 300.429937 
L 559.065964 65.870614 
L 551.261768 65.870614 
z
" clip-path="url(#p7e4feadb7e)" style="fill: #6a9bcc; opacity: 0.85"/>
   </g>
   <g id="patch_23">
    <path d="M 90.814215 300.429937 
L 98.618411 300.429937 
L 98.618411 68.029608 
L 90.814215 68.029608 
z
" clip-path="url(#p7e4feadb7e)" style="fill: #b0aea5; opacity: 0.85"/>
   </g>
   <g id="patch_24">
    <path d="M 142.842187 300.429937 
L 150.646383 300.429937 
L 150.646383 68.183822 
L 142.842187 68.183822 
z
" clip-path="url(#p7e4feadb7e)" style="fill: #b0aea5; opacity: 0.85"/>
   </g>
   <g id="patch_25">
    <path d="M 194.87016 300.429937 
L 202.674355 300.429937 
L 202.674355 67.644073 
L 194.87016 67.644073 
z
" clip-path="url(#p7e4feadb7e)" style="fill: #b0aea5; opacity: 0.85"/>
   </g>
   <g id="patch_26">
    <path d="M 246.898132 300.429937 
L 254.702327 300.429937 
L 254.702327 71.345207 
L 246.898132 71.345207 
z
" clip-path="url(#p7e4feadb7e)" style="fill: #b0aea5; opacity: 0.85"/>
   </g>
   <g id="patch_27">
    <path d="M 298.926104 300.429937 
L 306.730299 300.429937 
L 306.730299 82.063072 
L 298.926104 82.063072 
z
" clip-path="url(#p7e4feadb7e)" style="fill: #b0aea5; opacity: 0.85"/>
   </g>
   <g id="patch_28">
    <path d="M 350.954076 300.429937 
L 358.758271 300.429937 
L 358.758271 67.952501 
L 350.954076 67.952501 
z
" clip-path="url(#p7e4feadb7e)" style="fill: #b0aea5; opacity: 0.85"/>
   </g>
   <g id="patch_29">
    <path d="M 402.982048 300.429937 
L 410.786243 300.429937 
L 410.786243 63.94294 
L 402.982048 63.94294 
z
" clip-path="url(#p7e4feadb7e)" style="fill: #b0aea5; opacity: 0.85"/>
   </g>
   <g id="patch_30">
    <path d="M 455.01002 300.429937 
L 462.814215 300.429937 
L 462.814215 68.545889 
L 455.01002 68.545889 
z
" clip-path="url(#p7e4feadb7e)" style="fill: #b0aea5; opacity: 0.85"/>
   </g>
   <g id="patch_31">
    <path d="M 507.037992 300.429937 
L 514.842187 300.429937 
L 514.842187 66.950111 
L 507.037992 66.950111 
z
" clip-path="url(#p7e4feadb7e)" style="fill: #b0aea5; opacity: 0.85"/>
   </g>
   <g id="patch_32">
    <path d="M 559.065964 300.429937 
L 566.87016 300.429937 
L 566.87016 65.912672 
L 559.065964 65.912672 
z
" clip-path="url(#p7e4feadb7e)" style="fill: #b0aea5; opacity: 0.85"/>
   </g>
   <g id="patch_33">
    <path d="M 98.618411 300.429937 
L 106.422607 300.429937 
L 106.422607 70.728351 
L 98.618411 70.728351 
z
" clip-path="url(#p7e4feadb7e)" style="fill: #d97757; opacity: 0.85"/>
   </g>
   <g id="patch_34">
    <path d="M 150.646383 300.429937 
L 158.450579 300.429937 
L 158.450579 68.338036 
L 150.646383 68.338036 
z
" clip-path="url(#p7e4feadb7e)" style="fill: #d97757; opacity: 0.85"/>
   </g>
   <g id="patch_35">
    <path d="M 202.674355 300.429937 
L 210.478551 300.429937 
L 210.478551 69.263319 
L 202.674355 69.263319 
z
" clip-path="url(#p7e4feadb7e)" style="fill: #d97757; opacity: 0.85"/>
   </g>
   <g id="patch_36">
    <path d="M 254.702327 300.429937 
L 262.506523 300.429937 
L 262.506523 71.036779 
L 254.702327 71.036779 
z
" clip-path="url(#p7e4feadb7e)" style="fill: #d97757; opacity: 0.85"/>
   </g>
   <g id="patch_37">
    <path d="M 306.730299 300.429937 
L 314.534495 300.429937 
L 314.534495 70.805458 
L 306.730299 70.805458 
z
" clip-path="url(#p7e4feadb7e)" style="fill: #d97757; opacity: 0.85"/>
   </g>
   <g id="patch_38">
    <path d="M 358.758271 300.429937 
L 366.562467 300.429937 
L 366.562467 68.183822 
L 358.758271 68.183822 
z
" clip-path="url(#p7e4feadb7e)" style="fill: #d97757; opacity: 0.85"/>
   </g>
   <g id="patch_39">
    <path d="M 410.786243 300.429937 
L 418.590439 300.429937 
L 418.590439 63.788726 
L 410.786243 63.788726 
z
" clip-path="url(#p7e4feadb7e)" style="fill: #d97757; opacity: 0.85"/>
   </g>
   <g id="patch_40">
    <path d="M 462.814215 300.429937 
L 470.618411 300.429937 
L 470.618411 67.902214 
L 462.814215 67.902214 
z
" clip-path="url(#p7e4feadb7e)" style="fill: #d97757; opacity: 0.85"/>
   </g>
   <g id="patch_41">
    <path d="M 514.842188 300.429937 
L 522.646383 300.429937 
L 522.646383 78.516152 
L 514.842188 78.516152 
z
" clip-path="url(#p7e4feadb7e)" style="fill: #d97757; opacity: 0.85"/>
   </g>
   <g id="patch_42">
    <path d="M 566.87016 300.429937 
L 574.674355 300.429937 
L 574.674355 64.328475 
L 566.87016 64.328475 
z
" clip-path="url(#p7e4feadb7e)" style="fill: #d97757; opacity: 0.85"/>
   </g>
   <g id="patch_43">
    <path d="M 106.422607 300.429937 
L 114.226803 300.429937 
L 114.226803 300.429937 
L 106.422607 300.429937 
z
" clip-path="url(#p7e4feadb7e)" style="fill: #141413; opacity: 0.85"/>
   </g>
   <g id="patch_44">
    <path d="M 158.450579 300.429937 
L 166.254775 300.429937 
L 166.254775 71.671428 
L 158.450579 71.671428 
z
" clip-path="url(#p7e4feadb7e)" style="fill: #141413; opacity: 0.85"/>
   </g>
   <g id="patch_45">
    <path d="M 210.478551 300.429937 
L 218.282747 300.429937 
L 218.282747 68.415143 
L 210.478551 68.415143 
z
" clip-path="url(#p7e4feadb7e)" style="fill: #141413; opacity: 0.85"/>
   </g>
   <g id="patch_46">
    <path d="M 262.506523 300.429937 
L 270.310719 300.429937 
L 270.310719 60.781555 
L 262.506523 60.781555 
z
" clip-path="url(#p7e4feadb7e)" style="fill: #141413; opacity: 0.85"/>
   </g>
   <g id="patch_47">
    <path d="M 314.534495 300.429937 
L 322.338691 300.429937 
L 322.338691 65.407972 
L 314.534495 65.407972 
z
" clip-path="url(#p7e4feadb7e)" style="fill: #141413; opacity: 0.85"/>
   </g>
   <g id="patch_48">
    <path d="M 366.562467 300.429937 
L 374.366663 300.429937 
L 374.366663 68.954891 
L 366.562467 68.954891 
z
" clip-path="url(#p7e4feadb7e)" style="fill: #141413; opacity: 0.85"/>
   </g>
   <g id="patch_49">
    <path d="M 418.590439 300.429937 
L 426.394635 300.429937 
L 426.394635 64.791116 
L 418.590439 64.791116 
z
" clip-path="url(#p7e4feadb7e)" style="fill: #141413; opacity: 0.85"/>
   </g>
   <g id="patch_50">
    <path d="M 470.618411 300.429937 
L 478.422607 300.429937 
L 478.422607 69.571747 
L 470.618411 69.571747 
z
" clip-path="url(#p7e4feadb7e)" style="fill: #141413; opacity: 0.85"/>
   </g>
   <g id="patch_51">
    <path d="M 522.646383 300.429937 
L 530.450579 300.429937 
L 530.450579 66.795897 
L 522.646383 66.795897 
z
" clip-path="url(#p7e4feadb7e)" style="fill: #141413; opacity: 0.85"/>
   </g>
   <g id="patch_52">
    <path d="M 574.674355 300.429937 
L 582.478551 300.429937 
L 582.478551 68.368879 
L 574.674355 68.368879 
z
" clip-path="url(#p7e4feadb7e)" style="fill: #141413; opacity: 0.85"/>
   </g>
   <g id="matplotlib.axis_1">
    <g id="xtick_1">
     <g id="line2d_1">
      <defs>
       <path id="md5cfcd5165" d="M 0 0 
L 0 3.5 
" style="stroke: #000000; stroke-width: 0.8"/>
      </defs>
      <g>
       <use xlink:href="#md5cfcd5165" x="94.716313" y="300.429937" style="stroke: #000000; stroke-width: 0.8"/>
      </g>
     </g>
     <g id="text_1">
      <!-- gpt -->
      <g transform="translate(85.57686 315.788219) scale(0.11 -0.11)">
       <defs>
        <path id="DejaVuSans-67" d="M 2906 1791 
Q 2906 2416 2648 2759 
Q 2391 3103 1925 3103 
Q 1463 3103 1205 2759 
Q 947 2416 947 1791 
Q 947 1169 1205 825 
Q 1463 481 1925 481 
Q 2391 481 2648 825 
Q 2906 1169 2906 1791 
z
M 3481 434 
Q 3481 -459 3084 -895 
Q 2688 -1331 1869 -1331 
Q 1566 -1331 1297 -1286 
Q 1028 -1241 775 -1147 
L 775 -588 
Q 1028 -725 1275 -790 
Q 1522 -856 1778 -856 
Q 2344 -856 2625 -561 
Q 2906 -266 2906 331 
L 2906 616 
Q 2728 306 2450 153 
Q 2172 0 1784 0 
Q 1141 0 747 490 
Q 353 981 353 1791 
Q 353 2603 747 3093 
Q 1141 3584 1784 3584 
Q 2172 3584 2450 3431 
Q 2728 3278 2906 2969 
L 2906 3500 
L 3481 3500 
L 3481 434 
z
" transform="scale(0.015625)"/>
        <path id="DejaVuSans-70" d="M 1159 525 
L 1159 -1331 
L 581 -1331 
L 581 3500 
L 1159 3500 
L 1159 2969 
Q 1341 3281 1617 3432 
Q 1894 3584 2278 3584 
Q 2916 3584 3314 3078 
Q 3713 2572 3713 1747 
Q 3713 922 3314 415 
Q 2916 -91 2278 -91 
Q 1894 -91 1617 61 
Q 1341 213 1159 525 
z
M 3116 1747 
Q 3116 2381 2855 2742 
Q 2594 3103 2138 3103 
Q 1681 3103 1420 2742 
Q 1159 2381 1159 1747 
Q 1159 1113 1420 752 
Q 1681 391 2138 391 
Q 2594 391 2855 752 
Q 3116 1113 3116 1747 
z
" transform="scale(0.015625)"/>
        <path id="DejaVuSans-74" d="M 1172 4494 
L 1172 3500 
L 2356 3500 
L 2356 3053 
L 1172 3053 
L 1172 1153 
Q 1172 725 1289 603 
Q 1406 481 1766 481 
L 2356 481 
L 2356 0 
L 1766 0 
Q 1100 0 847 248 
Q 594 497 594 1153 
L 594 3053 
L 172 3053 
L 172 3500 
L 594 3500 
L 594 4494 
L 1172 4494 
z
" transform="scale(0.015625)"/>
       </defs>
       <use xlink:href="#DejaVuSans-67"/>
       <use xlink:href="#DejaVuSans-70" x="63.476562"/>
       <use xlink:href="#DejaVuSans-74" x="126.953125"/>
      </g>
      <!-- 5 -->
      <g transform="translate(91.216938 328.105813) scale(0.11 -0.11)">
       <defs>
        <path id="DejaVuSans-35" d="M 691 4666 
L 3169 4666 
L 3169 4134 
L 1269 4134 
L 1269 2991 
Q 1406 3038 1543 3061 
Q 1681 3084 1819 3084 
Q 2600 3084 3056 2656 
Q 3513 2228 3513 1497 
Q 3513 744 3044 326 
Q 2575 -91 1722 -91 
Q 1428 -91 1123 -41 
Q 819 9 494 109 
L 494 744 
Q 775 591 1075 516 
Q 1375 441 1709 441 
Q 2250 441 2565 725 
Q 2881 1009 2881 1497 
Q 2881 1984 2565 2268 
Q 2250 2553 1709 2553 
Q 1456 2553 1204 2497 
Q 953 2441 691 2322 
L 691 4666 
z
" transform="scale(0.015625)"/>
       </defs>
       <use xlink:href="#DejaVuSans-35"/>
      </g>
      <!-- codex -->
      <g transform="translate(78.291938 340.423406) scale(0.11 -0.11)">
       <defs>
        <path id="DejaVuSans-63" d="M 3122 3366 
L 3122 2828 
Q 2878 2963 2633 3030 
Q 2388 3097 2138 3097 
Q 1578 3097 1268 2742 
Q 959 2388 959 1747 
Q 959 1106 1268 751 
Q 1578 397 2138 397 
Q 2388 397 2633 464 
Q 2878 531 3122 666 
L 3122 134 
Q 2881 22 2623 -34 
Q 2366 -91 2075 -91 
Q 1284 -91 818 406 
Q 353 903 353 1747 
Q 353 2603 823 3093 
Q 1294 3584 2113 3584 
Q 2378 3584 2631 3529 
Q 2884 3475 3122 3366 
z
" transform="scale(0.015625)"/>
        <path id="DejaVuSans-6f" d="M 1959 3097 
Q 1497 3097 1228 2736 
Q 959 2375 959 1747 
Q 959 1119 1226 758 
Q 1494 397 1959 397 
Q 2419 397 2687 759 
Q 2956 1122 2956 1747 
Q 2956 2369 2687 2733 
Q 2419 3097 1959 3097 
z
M 1959 3584 
Q 2709 3584 3137 3096 
Q 3566 2609 3566 1747 
Q 3566 888 3137 398 
Q 2709 -91 1959 -91 
Q 1206 -91 779 398 
Q 353 888 353 1747 
Q 353 2609 779 3096 
Q 1206 3584 1959 3584 
z
" transform="scale(0.015625)"/>
        <path id="DejaVuSans-64" d="M 2906 2969 
L 2906 4863 
L 3481 4863 
L 3481 0 
L 2906 0 
L 2906 525 
Q 2725 213 2448 61 
Q 2172 -91 1784 -91 
Q 1150 -91 751 415 
Q 353 922 353 1747 
Q 353 2572 751 3078 
Q 1150 3584 1784 3584 
Q 2172 3584 2448 3432 
Q 2725 3281 2906 2969 
z
M 947 1747 
Q 947 1113 1208 752 
Q 1469 391 1925 391 
Q 2381 391 2643 752 
Q 2906 1113 2906 1747 
Q 2906 2381 2643 2742 
Q 2381 3103 1925 3103 
Q 1469 3103 1208 2742 
Q 947 2381 947 1747 
z
" transform="scale(0.015625)"/>
        <path id="DejaVuSans-65" d="M 3597 1894 
L 3597 1613 
L 953 1613 
Q 991 1019 1311 708 
Q 1631 397 2203 397 
Q 2534 397 2845 478 
Q 3156 559 3463 722 
L 3463 178 
Q 3153 47 2828 -22 
Q 2503 -91 2169 -91 
Q 1331 -91 842 396 
Q 353 884 353 1716 
Q 353 2575 817 3079 
Q 1281 3584 2069 3584 
Q 2775 3584 3186 3129 
Q 3597 2675 3597 1894 
z
M 3022 2063 
Q 3016 2534 2758 2815 
Q 2500 3097 2075 3097 
Q 1594 3097 1305 2825 
Q 1016 2553 972 2059 
L 3022 2063 
z
" transform="scale(0.015625)"/>
        <path id="DejaVuSans-78" d="M 3513 3500 
L 2247 1797 
L 3578 0 
L 2900 0 
L 1881 1375 
L 863 0 
L 184 0 
L 1544 1831 
L 300 3500 
L 978 3500 
L 1906 2253 
L 2834 3500 
L 3513 3500 
z
" transform="scale(0.015625)"/>
       </defs>
       <use xlink:href="#DejaVuSans-63"/>
       <use xlink:href="#DejaVuSans-6f" x="54.980469"/>
       <use xlink:href="#DejaVuSans-64" x="116.162109"/>
       <use xlink:href="#DejaVuSans-65" x="179.638672"/>
       <use xlink:href="#DejaVuSans-78" x="239.412109"/>
      </g>
     </g>
    </g>
    <g id="xtick_2">
     <g id="line2d_2">
      <g>
       <use xlink:href="#md5cfcd5165" x="146.744285" y="300.429937" style="stroke: #000000; stroke-width: 0.8"/>
      </g>
     </g>
     <g id="text_2">
      <!-- gpt -->
      <g transform="translate(137.604832 315.788219) scale(0.11 -0.11)">
       <use xlink:href="#DejaVuSans-67"/>
       <use xlink:href="#DejaVuSans-70" x="63.476562"/>
       <use xlink:href="#DejaVuSans-74" x="126.953125"/>
      </g>
      <!-- 5.4 -->
      <g transform="translate(137.997567 328.105813) scale(0.11 -0.11)">
       <defs>
        <path id="DejaVuSans-2e" d="M 684 794 
L 1344 794 
L 1344 0 
L 684 0 
L 684 794 
z
" transform="scale(0.015625)"/>
        <path id="DejaVuSans-34" d="M 2419 4116 
L 825 1625 
L 2419 1625 
L 2419 4116 
z
M 2253 4666 
L 3047 4666 
L 3047 1625 
L 3713 1625 
L 3713 1100 
L 3047 1100 
L 3047 0 
L 2419 0 
L 2419 1100 
L 313 1100 
L 313 1709 
L 2253 4666 
z
" transform="scale(0.015625)"/>
       </defs>
       <use xlink:href="#DejaVuSans-35"/>
       <use xlink:href="#DejaVuSans-2e" x="63.623047"/>
       <use xlink:href="#DejaVuSans-34" x="95.410156"/>
      </g>
     </g>
    </g>
    <g id="xtick_3">
     <g id="line2d_3">
      <g>
       <use xlink:href="#md5cfcd5165" x="198.772257" y="300.429937" style="stroke: #000000; stroke-width: 0.8"/>
      </g>
     </g>
     <g id="text_3">
      <!-- grok -->
      <g transform="translate(186.593195 315.788219) scale(0.11 -0.11)">
       <defs>
        <path id="DejaVuSans-72" d="M 2631 2963 
Q 2534 3019 2420 3045 
Q 2306 3072 2169 3072 
Q 1681 3072 1420 2755 
Q 1159 2438 1159 1844 
L 1159 0 
L 581 0 
L 581 3500 
L 1159 3500 
L 1159 2956 
Q 1341 3275 1631 3429 
Q 1922 3584 2338 3584 
Q 2397 3584 2469 3576 
Q 2541 3569 2628 3553 
L 2631 2963 
z
" transform="scale(0.015625)"/>
        <path id="DejaVuSans-6b" d="M 581 4863 
L 1159 4863 
L 1159 1991 
L 2875 3500 
L 3609 3500 
L 1753 1863 
L 3688 0 
L 2938 0 
L 1159 1709 
L 1159 0 
L 581 0 
L 581 4863 
z
" transform="scale(0.015625)"/>
       </defs>
       <use xlink:href="#DejaVuSans-67"/>
       <use xlink:href="#DejaVuSans-72" x="63.476562"/>
       <use xlink:href="#DejaVuSans-6f" x="102.339844"/>
       <use xlink:href="#DejaVuSans-6b" x="163.521484"/>
      </g>
      <!-- 4.1 -->
      <g transform="translate(190.025539 328.105813) scale(0.11 -0.11)">
       <defs>
        <path id="DejaVuSans-31" d="M 794 531 
L 1825 531 
L 1825 4091 
L 703 3866 
L 703 4441 
L 1819 4666 
L 2450 4666 
L 2450 531 
L 3481 531 
L 3481 0 
L 794 0 
L 794 531 
z
" transform="scale(0.015625)"/>
       </defs>
       <use xlink:href="#DejaVuSans-34"/>
       <use xlink:href="#DejaVuSans-2e" x="63.623047"/>
       <use xlink:href="#DejaVuSans-31" x="95.410156"/>
      </g>
      <!-- fast -->
      <g transform="translate(188.444289 340.423406) scale(0.11 -0.11)">
       <defs>
        <path id="DejaVuSans-66" d="M 2375 4863 
L 2375 4384 
L 1825 4384 
Q 1516 4384 1395 4259 
Q 1275 4134 1275 3809 
L 1275 3500 
L 2222 3500 
L 2222 3053 
L 1275 3053 
L 1275 0 
L 697 0 
L 697 3053 
L 147 3053 
L 147 3500 
L 697 3500 
L 697 3744 
Q 697 4328 969 4595 
Q 1241 4863 1831 4863 
L 2375 4863 
z
" transform="scale(0.015625)"/>
        <path id="DejaVuSans-61" d="M 2194 1759 
Q 1497 1759 1228 1600 
Q 959 1441 959 1056 
Q 959 750 1161 570 
Q 1363 391 1709 391 
Q 2188 391 2477 730 
Q 2766 1069 2766 1631 
L 2766 1759 
L 2194 1759 
z
M 3341 1997 
L 3341 0 
L 2766 0 
L 2766 531 
Q 2569 213 2275 61 
Q 1981 -91 1556 -91 
Q 1019 -91 701 211 
Q 384 513 384 1019 
Q 384 1609 779 1909 
Q 1175 2209 1959 2209 
L 2766 2209 
L 2766 2266 
Q 2766 2663 2505 2880 
Q 2244 3097 1772 3097 
Q 1472 3097 1187 3025 
Q 903 2953 641 2809 
L 641 3341 
Q 956 3463 1253 3523 
Q 1550 3584 1831 3584 
Q 2591 3584 2966 3190 
Q 3341 2797 3341 1997 
z
" transform="scale(0.015625)"/>
        <path id="DejaVuSans-73" d="M 2834 3397 
L 2834 2853 
Q 2591 2978 2328 3040 
Q 2066 3103 1784 3103 
Q 1356 3103 1142 2972 
Q 928 2841 928 2578 
Q 928 2378 1081 2264 
Q 1234 2150 1697 2047 
L 1894 2003 
Q 2506 1872 2764 1633 
Q 3022 1394 3022 966 
Q 3022 478 2636 193 
Q 2250 -91 1575 -91 
Q 1294 -91 989 -36 
Q 684 19 347 128 
L 347 722 
Q 666 556 975 473 
Q 1284 391 1588 391 
Q 1994 391 2212 530 
Q 2431 669 2431 922 
Q 2431 1156 2273 1281 
Q 2116 1406 1581 1522 
L 1381 1569 
Q 847 1681 609 1914 
Q 372 2147 372 2553 
Q 372 3047 722 3315 
Q 1072 3584 1716 3584 
Q 2034 3584 2315 3537 
Q 2597 3491 2834 3397 
z
" transform="scale(0.015625)"/>
       </defs>
       <use xlink:href="#DejaVuSans-66"/>
       <use xlink:href="#DejaVuSans-61" x="35.205078"/>
       <use xlink:href="#DejaVuSans-73" x="96.484375"/>
       <use xlink:href="#DejaVuSans-74" x="148.583984"/>
      </g>
     </g>
    </g>
    <g id="xtick_4">
     <g id="line2d_4">
      <g>
       <use xlink:href="#md5cfcd5165" x="250.800229" y="300.429937" style="stroke: #000000; stroke-width: 0.8"/>
      </g>
     </g>
     <g id="text_4">
      <!-- grok -->
      <g transform="translate(238.621167 315.788219) scale(0.11 -0.11)">
       <use xlink:href="#DejaVuSans-67"/>
       <use xlink:href="#DejaVuSans-72" x="63.476562"/>
       <use xlink:href="#DejaVuSans-6f" x="102.339844"/>
       <use xlink:href="#DejaVuSans-6b" x="163.521484"/>
      </g>
      <!-- 4.20 -->
      <g transform="translate(238.554136 328.105813) scale(0.11 -0.11)">
       <defs>
        <path id="DejaVuSans-32" d="M 1228 531 
L 3431 531 
L 3431 0 
L 469 0 
L 469 531 
Q 828 903 1448 1529 
Q 2069 2156 2228 2338 
Q 2531 2678 2651 2914 
Q 2772 3150 2772 3378 
Q 2772 3750 2511 3984 
Q 2250 4219 1831 4219 
Q 1534 4219 1204 4116 
Q 875 4013 500 3803 
L 500 4441 
Q 881 4594 1212 4672 
Q 1544 4750 1819 4750 
Q 2544 4750 2975 4387 
Q 3406 4025 3406 3419 
Q 3406 3131 3298 2873 
Q 3191 2616 2906 2266 
Q 2828 2175 2409 1742 
Q 1991 1309 1228 531 
z
" transform="scale(0.015625)"/>
        <path id="DejaVuSans-30" d="M 2034 4250 
Q 1547 4250 1301 3770 
Q 1056 3291 1056 2328 
Q 1056 1369 1301 889 
Q 1547 409 2034 409 
Q 2525 409 2770 889 
Q 3016 1369 3016 2328 
Q 3016 3291 2770 3770 
Q 2525 4250 2034 4250 
z
M 2034 4750 
Q 2819 4750 3233 4129 
Q 3647 3509 3647 2328 
Q 3647 1150 3233 529 
Q 2819 -91 2034 -91 
Q 1250 -91 836 529 
Q 422 1150 422 2328 
Q 422 3509 836 4129 
Q 1250 4750 2034 4750 
z
" transform="scale(0.015625)"/>
       </defs>
       <use xlink:href="#DejaVuSans-34"/>
       <use xlink:href="#DejaVuSans-2e" x="63.623047"/>
       <use xlink:href="#DejaVuSans-32" x="95.410156"/>
       <use xlink:href="#DejaVuSans-30" x="159.033203"/>
      </g>
      <!-- beta -->
      <g transform="translate(238.397729 340.423406) scale(0.11 -0.11)">
       <defs>
        <path id="DejaVuSans-62" d="M 3116 1747 
Q 3116 2381 2855 2742 
Q 2594 3103 2138 3103 
Q 1681 3103 1420 2742 
Q 1159 2381 1159 1747 
Q 1159 1113 1420 752 
Q 1681 391 2138 391 
Q 2594 391 2855 752 
Q 3116 1113 3116 1747 
z
M 1159 2969 
Q 1341 3281 1617 3432 
Q 1894 3584 2278 3584 
Q 2916 3584 3314 3078 
Q 3713 2572 3713 1747 
Q 3713 922 3314 415 
Q 2916 -91 2278 -91 
Q 1894 -91 1617 61 
Q 1341 213 1159 525 
L 1159 0 
L 581 0 
L 581 4863 
L 1159 4863 
L 1159 2969 
z
" transform="scale(0.015625)"/>
       </defs>
       <use xlink:href="#DejaVuSans-62"/>
       <use xlink:href="#DejaVuSans-65" x="63.476562"/>
       <use xlink:href="#DejaVuSans-74" x="125"/>
       <use xlink:href="#DejaVuSans-61" x="164.208984"/>
      </g>
     </g>
    </g>
    <g id="xtick_5">
     <g id="line2d_5">
      <g>
       <use xlink:href="#md5cfcd5165" x="302.828201" y="300.429937" style="stroke: #000000; stroke-width: 0.8"/>
      </g>
     </g>
     <g id="text_5">
      <!-- haiku -->
      <g transform="translate(287.945545 315.788219) scale(0.11 -0.11)">
       <defs>
        <path id="DejaVuSans-68" d="M 3513 2113 
L 3513 0 
L 2938 0 
L 2938 2094 
Q 2938 2591 2744 2837 
Q 2550 3084 2163 3084 
Q 1697 3084 1428 2787 
Q 1159 2491 1159 1978 
L 1159 0 
L 581 0 
L 581 4863 
L 1159 4863 
L 1159 2956 
Q 1366 3272 1645 3428 
Q 1925 3584 2291 3584 
Q 2894 3584 3203 3211 
Q 3513 2838 3513 2113 
z
" transform="scale(0.015625)"/>
        <path id="DejaVuSans-69" d="M 603 3500 
L 1178 3500 
L 1178 0 
L 603 0 
L 603 3500 
z
M 603 4863 
L 1178 4863 
L 1178 4134 
L 603 4134 
L 603 4863 
z
" transform="scale(0.015625)"/>
        <path id="DejaVuSans-75" d="M 544 1381 
L 544 3500 
L 1119 3500 
L 1119 1403 
Q 1119 906 1312 657 
Q 1506 409 1894 409 
Q 2359 409 2629 706 
Q 2900 1003 2900 1516 
L 2900 3500 
L 3475 3500 
L 3475 0 
L 2900 0 
L 2900 538 
Q 2691 219 2414 64 
Q 2138 -91 1772 -91 
Q 1169 -91 856 284 
Q 544 659 544 1381 
z
M 1991 3584 
L 1991 3584 
z
" transform="scale(0.015625)"/>
       </defs>
       <use xlink:href="#DejaVuSans-68"/>
       <use xlink:href="#DejaVuSans-61" x="63.378906"/>
       <use xlink:href="#DejaVuSans-69" x="124.658203"/>
       <use xlink:href="#DejaVuSans-6b" x="152.441406"/>
       <use xlink:href="#DejaVuSans-75" x="207.226562"/>
      </g>
      <!-- 4.5 -->
      <g transform="translate(294.081483 328.105813) scale(0.11 -0.11)">
       <use xlink:href="#DejaVuSans-34"/>
       <use xlink:href="#DejaVuSans-2e" x="63.623047"/>
       <use xlink:href="#DejaVuSans-35" x="95.410156"/>
      </g>
     </g>
    </g>
    <g id="xtick_6">
     <g id="line2d_6">
      <g>
       <use xlink:href="#md5cfcd5165" x="354.856174" y="300.429937" style="stroke: #000000; stroke-width: 0.8"/>
      </g>
     </g>
     <g id="text_6">
      <!-- longcat -->
      <g transform="translate(334.434845 315.788219) scale(0.11 -0.11)">
       <defs>
        <path id="DejaVuSans-6c" d="M 603 4863 
L 1178 4863 
L 1178 0 
L 603 0 
L 603 4863 
z
" transform="scale(0.015625)"/>
        <path id="DejaVuSans-6e" d="M 3513 2113 
L 3513 0 
L 2938 0 
L 2938 2094 
Q 2938 2591 2744 2837 
Q 2550 3084 2163 3084 
Q 1697 3084 1428 2787 
Q 1159 2491 1159 1978 
L 1159 0 
L 581 0 
L 581 3500 
L 1159 3500 
L 1159 2956 
Q 1366 3272 1645 3428 
Q 1925 3584 2291 3584 
Q 2894 3584 3203 3211 
Q 3513 2838 3513 2113 
z
" transform="scale(0.015625)"/>
       </defs>
       <use xlink:href="#DejaVuSans-6c"/>
       <use xlink:href="#DejaVuSans-6f" x="27.783203"/>
       <use xlink:href="#DejaVuSans-6e" x="88.964844"/>
       <use xlink:href="#DejaVuSans-67" x="152.34375"/>
       <use xlink:href="#DejaVuSans-63" x="215.820312"/>
       <use xlink:href="#DejaVuSans-61" x="270.800781"/>
       <use xlink:href="#DejaVuSans-74" x="332.080078"/>
      </g>
      <!-- flash -->
      <g transform="translate(341.670783 328.105813) scale(0.11 -0.11)">
       <use xlink:href="#DejaVuSans-66"/>
       <use xlink:href="#DejaVuSans-6c" x="35.205078"/>
       <use xlink:href="#DejaVuSans-61" x="62.988281"/>
       <use xlink:href="#DejaVuSans-73" x="124.267578"/>
       <use xlink:href="#DejaVuSans-68" x="176.367188"/>
      </g>
      <!-- chat -->
      <g transform="translate(342.819767 340.423406) scale(0.11 -0.11)">
       <use xlink:href="#DejaVuSans-63"/>
       <use xlink:href="#DejaVuSans-68" x="54.980469"/>
       <use xlink:href="#DejaVuSans-61" x="118.359375"/>
       <use xlink:href="#DejaVuSans-74" x="179.638672"/>
      </g>
     </g>
    </g>
    <g id="xtick_7">
     <g id="line2d_7">
      <g>
       <use xlink:href="#md5cfcd5165" x="406.884146" y="300.429937" style="stroke: #000000; stroke-width: 0.8"/>
      </g>
     </g>
     <g id="text_7">
      <!-- longcat -->
      <g transform="translate(386.462817 315.788219) scale(0.11 -0.11)">
       <use xlink:href="#DejaVuSans-6c"/>
       <use xlink:href="#DejaVuSans-6f" x="27.783203"/>
       <use xlink:href="#DejaVuSans-6e" x="88.964844"/>
       <use xlink:href="#DejaVuSans-67" x="152.34375"/>
       <use xlink:href="#DejaVuSans-63" x="215.820312"/>
       <use xlink:href="#DejaVuSans-61" x="270.800781"/>
       <use xlink:href="#DejaVuSans-74" x="332.080078"/>
      </g>
      <!-- flash -->
      <g transform="translate(393.698755 328.105813) scale(0.11 -0.11)">
       <use xlink:href="#DejaVuSans-66"/>
       <use xlink:href="#DejaVuSans-6c" x="35.205078"/>
       <use xlink:href="#DejaVuSans-61" x="62.988281"/>
       <use xlink:href="#DejaVuSans-73" x="124.267578"/>
       <use xlink:href="#DejaVuSans-68" x="176.367188"/>
      </g>
      <!-- lite -->
      <g transform="translate(398.287817 340.423406) scale(0.11 -0.11)">
       <use xlink:href="#DejaVuSans-6c"/>
       <use xlink:href="#DejaVuSans-69" x="27.783203"/>
       <use xlink:href="#DejaVuSans-74" x="55.566406"/>
       <use xlink:href="#DejaVuSans-65" x="94.775391"/>
      </g>
     </g>
    </g>
    <g id="xtick_8">
     <g id="line2d_8">
      <g>
       <use xlink:href="#md5cfcd5165" x="458.912118" y="300.429937" style="stroke: #000000; stroke-width: 0.8"/>
      </g>
     </g>
     <g id="text_8">
      <!-- longcat -->
      <g transform="translate(438.490789 315.788219) scale(0.11 -0.11)">
       <use xlink:href="#DejaVuSans-6c"/>
       <use xlink:href="#DejaVuSans-6f" x="27.783203"/>
       <use xlink:href="#DejaVuSans-6e" x="88.964844"/>
       <use xlink:href="#DejaVuSans-67" x="152.34375"/>
       <use xlink:href="#DejaVuSans-63" x="215.820312"/>
       <use xlink:href="#DejaVuSans-61" x="270.800781"/>
       <use xlink:href="#DejaVuSans-74" x="332.080078"/>
      </g>
      <!-- flash -->
      <g transform="translate(445.726727 328.105813) scale(0.11 -0.11)">
       <use xlink:href="#DejaVuSans-66"/>
       <use xlink:href="#DejaVuSans-6c" x="35.205078"/>
       <use xlink:href="#DejaVuSans-61" x="62.988281"/>
       <use xlink:href="#DejaVuSans-73" x="124.267578"/>
       <use xlink:href="#DejaVuSans-68" x="176.367188"/>
      </g>
      <!-- thinking -->
      <g transform="translate(436.566649 340.423406) scale(0.11 -0.11)">
       <use xlink:href="#DejaVuSans-74"/>
       <use xlink:href="#DejaVuSans-68" x="39.208984"/>
       <use xlink:href="#DejaVuSans-69" x="102.587891"/>
       <use xlink:href="#DejaVuSans-6e" x="130.371094"/>
       <use xlink:href="#DejaVuSans-6b" x="193.75"/>
       <use xlink:href="#DejaVuSans-69" x="251.660156"/>
       <use xlink:href="#DejaVuSans-6e" x="279.443359"/>
       <use xlink:href="#DejaVuSans-67" x="342.822266"/>
      </g>
     </g>
    </g>
    <g id="xtick_9">
     <g id="line2d_9">
      <g>
       <use xlink:href="#md5cfcd5165" x="510.94009" y="300.429937" style="stroke: #000000; stroke-width: 0.8"/>
      </g>
     </g>
     <g id="text_9">
      <!-- sonnet -->
      <g transform="translate(492.19798 315.788219) scale(0.11 -0.11)">
       <use xlink:href="#DejaVuSans-73"/>
       <use xlink:href="#DejaVuSans-6f" x="52.099609"/>
       <use xlink:href="#DejaVuSans-6e" x="113.28125"/>
       <use xlink:href="#DejaVuSans-6e" x="176.660156"/>
       <use xlink:href="#DejaVuSans-65" x="240.039062"/>
       <use xlink:href="#DejaVuSans-74" x="301.5625"/>
      </g>
      <!-- 4 -->
      <g transform="translate(507.440715 328.105813) scale(0.11 -0.11)">
       <use xlink:href="#DejaVuSans-34"/>
      </g>
     </g>
    </g>
    <g id="xtick_10">
     <g id="line2d_10">
      <g>
       <use xlink:href="#md5cfcd5165" x="562.968062" y="300.429937" style="stroke: #000000; stroke-width: 0.8"/>
      </g>
     </g>
     <g id="text_10">
      <!-- sonnet -->
      <g transform="translate(544.225952 315.788219) scale(0.11 -0.11)">
       <use xlink:href="#DejaVuSans-73"/>
       <use xlink:href="#DejaVuSans-6f" x="52.099609"/>
       <use xlink:href="#DejaVuSans-6e" x="113.28125"/>
       <use xlink:href="#DejaVuSans-6e" x="176.660156"/>
       <use xlink:href="#DejaVuSans-65" x="240.039062"/>
       <use xlink:href="#DejaVuSans-74" x="301.5625"/>
      </g>
      <!-- 4.5 -->
      <g transform="translate(554.221343 328.105813) scale(0.11 -0.11)">
       <use xlink:href="#DejaVuSans-34"/>
       <use xlink:href="#DejaVuSans-2e" x="63.623047"/>
       <use xlink:href="#DejaVuSans-35" x="95.410156"/>
      </g>
     </g>
    </g>
   </g>
   <g id="matplotlib.axis_2">
    <g id="ytick_1">
     <g id="line2d_11">
      <path d="M 49.842188 300.429937 
L 607.842188 300.429937 
" clip-path="url(#p7e4feadb7e)" style="fill: none; stroke: #b0b0b0; stroke-opacity: 0.3; stroke-width: 0.8; stroke-linecap: square"/>
     </g>
     <g id="line2d_12">
      <defs>
       <path id="m7c1980770b" d="M 0 0 
L -3.5 0 
" style="stroke: #000000; stroke-width: 0.8"/>
      </defs>
      <g>
       <use xlink:href="#m7c1980770b" x="49.842188" y="300.429937" style="stroke: #000000; stroke-width: 0.8"/>
      </g>
     </g>
     <g id="text_11">
      <!-- 0 -->
      <g transform="translate(35.843438 304.609078) scale(0.11 -0.11)">
       <use xlink:href="#DejaVuSans-30"/>
      </g>
     </g>
    </g>
    <g id="ytick_2">
     <g id="line2d_13">
      <path d="M 49.842188 263.418604 
L 607.842188 263.418604 
" clip-path="url(#p7e4feadb7e)" style="fill: none; stroke: #b0b0b0; stroke-opacity: 0.3; stroke-width: 0.8; stroke-linecap: square"/>
     </g>
     <g id="line2d_14">
      <g>
       <use xlink:href="#m7c1980770b" x="49.842188" y="263.418604" style="stroke: #000000; stroke-width: 0.8"/>
      </g>
     </g>
     <g id="text_12">
      <!-- 20 -->
      <g transform="translate(28.844688 267.597745) scale(0.11 -0.11)">
       <use xlink:href="#DejaVuSans-32"/>
       <use xlink:href="#DejaVuSans-30" x="63.623047"/>
      </g>
     </g>
    </g>
    <g id="ytick_3">
     <g id="line2d_15">
      <path d="M 49.842188 226.407271 
L 607.842188 226.407271 
" clip-path="url(#p7e4feadb7e)" style="fill: none; stroke: #b0b0b0; stroke-opacity: 0.3; stroke-width: 0.8; stroke-linecap: square"/>
     </g>
     <g id="line2d_16">
      <g>
       <use xlink:href="#m7c1980770b" x="49.842188" y="226.407271" style="stroke: #000000; stroke-width: 0.8"/>
      </g>
     </g>
     <g id="text_13">
      <!-- 40 -->
      <g transform="translate(28.844688 230.586412) scale(0.11 -0.11)">
       <use xlink:href="#DejaVuSans-34"/>
       <use xlink:href="#DejaVuSans-30" x="63.623047"/>
      </g>
     </g>
    </g>
    <g id="ytick_4">
     <g id="line2d_17">
      <path d="M 49.842188 189.395938 
L 607.842188 189.395938 
" clip-path="url(#p7e4feadb7e)" style="fill: none; stroke: #b0b0b0; stroke-opacity: 0.3; stroke-width: 0.8; stroke-linecap: square"/>
     </g>
     <g id="line2d_18">
      <g>
       <use xlink:href="#m7c1980770b" x="49.842188" y="189.395938" style="stroke: #000000; stroke-width: 0.8"/>
      </g>
     </g>
     <g id="text_14">
      <!-- 60 -->
      <g transform="translate(28.844688 193.575079) scale(0.11 -0.11)">
       <defs>
        <path id="DejaVuSans-36" d="M 2113 2584 
Q 1688 2584 1439 2293 
Q 1191 2003 1191 1497 
Q 1191 994 1439 701 
Q 1688 409 2113 409 
Q 2538 409 2786 701 
Q 3034 994 3034 1497 
Q 3034 2003 2786 2293 
Q 2538 2584 2113 2584 
z
M 3366 4563 
L 3366 3988 
Q 3128 4100 2886 4159 
Q 2644 4219 2406 4219 
Q 1781 4219 1451 3797 
Q 1122 3375 1075 2522 
Q 1259 2794 1537 2939 
Q 1816 3084 2150 3084 
Q 2853 3084 3261 2657 
Q 3669 2231 3669 1497 
Q 3669 778 3244 343 
Q 2819 -91 2113 -91 
Q 1303 -91 875 529 
Q 447 1150 447 2328 
Q 447 3434 972 4092 
Q 1497 4750 2381 4750 
Q 2619 4750 2861 4703 
Q 3103 4656 3366 4563 
z
" transform="scale(0.015625)"/>
       </defs>
       <use xlink:href="#DejaVuSans-36"/>
       <use xlink:href="#DejaVuSans-30" x="63.623047"/>
      </g>
     </g>
    </g>
    <g id="ytick_5">
     <g id="line2d_19">
      <path d="M 49.842188 152.384605 
L 607.842188 152.384605 
" clip-path="url(#p7e4feadb7e)" style="fill: none; stroke: #b0b0b0; stroke-opacity: 0.3; stroke-width: 0.8; stroke-linecap: square"/>
     </g>
     <g id="line2d_20">
      <g>
       <use xlink:href="#m7c1980770b" x="49.842188" y="152.384605" style="stroke: #000000; stroke-width: 0.8"/>
      </g>
     </g>
     <g id="text_15">
      <!-- 80 -->
      <g transform="translate(28.844688 156.563746) scale(0.11 -0.11)">
       <defs>
        <path id="DejaVuSans-38" d="M 2034 2216 
Q 1584 2216 1326 1975 
Q 1069 1734 1069 1313 
Q 1069 891 1326 650 
Q 1584 409 2034 409 
Q 2484 409 2743 651 
Q 3003 894 3003 1313 
Q 3003 1734 2745 1975 
Q 2488 2216 2034 2216 
z
M 1403 2484 
Q 997 2584 770 2862 
Q 544 3141 544 3541 
Q 544 4100 942 4425 
Q 1341 4750 2034 4750 
Q 2731 4750 3128 4425 
Q 3525 4100 3525 3541 
Q 3525 3141 3298 2862 
Q 3072 2584 2669 2484 
Q 3125 2378 3379 2068 
Q 3634 1759 3634 1313 
Q 3634 634 3220 271 
Q 2806 -91 2034 -91 
Q 1263 -91 848 271 
Q 434 634 434 1313 
Q 434 1759 690 2068 
Q 947 2378 1403 2484 
z
M 1172 3481 
Q 1172 3119 1398 2916 
Q 1625 2713 2034 2713 
Q 2441 2713 2670 2916 
Q 2900 3119 2900 3481 
Q 2900 3844 2670 4047 
Q 2441 4250 2034 4250 
Q 1625 4250 1398 4047 
Q 1172 3844 1172 3481 
z
" transform="scale(0.015625)"/>
       </defs>
       <use xlink:href="#DejaVuSans-38"/>
       <use xlink:href="#DejaVuSans-30" x="63.623047"/>
      </g>
     </g>
    </g>
    <g id="ytick_6">
     <g id="line2d_21">
      <path d="M 49.842188 115.373272 
L 607.842188 115.373272 
" clip-path="url(#p7e4feadb7e)" style="fill: none; stroke: #b0b0b0; stroke-opacity: 0.3; stroke-width: 0.8; stroke-linecap: square"/>
     </g>
     <g id="line2d_22">
      <g>
       <use xlink:href="#m7c1980770b" x="49.842188" y="115.373272" style="stroke: #000000; stroke-width: 0.8"/>
      </g>
     </g>
     <g id="text_16">
      <!-- 100 -->
      <g transform="translate(21.845938 119.552412) scale(0.11 -0.11)">
       <use xlink:href="#DejaVuSans-31"/>
       <use xlink:href="#DejaVuSans-30" x="63.623047"/>
       <use xlink:href="#DejaVuSans-30" x="127.246094"/>
      </g>
     </g>
    </g>
    <g id="ytick_7">
     <g id="line2d_23">
      <path d="M 49.842188 78.361939 
L 607.842188 78.361939 
" clip-path="url(#p7e4feadb7e)" style="fill: none; stroke: #b0b0b0; stroke-opacity: 0.3; stroke-width: 0.8; stroke-linecap: square"/>
     </g>
     <g id="line2d_24">
      <g>
       <use xlink:href="#m7c1980770b" x="49.842188" y="78.361939" style="stroke: #000000; stroke-width: 0.8"/>
      </g>
     </g>
     <g id="text_17">
      <!-- 120 -->
      <g transform="translate(21.845938 82.541079) scale(0.11 -0.11)">
       <use xlink:href="#DejaVuSans-31"/>
       <use xlink:href="#DejaVuSans-32" x="63.623047"/>
       <use xlink:href="#DejaVuSans-30" x="127.246094"/>
      </g>
     </g>
    </g>
    <g id="ytick_8">
     <g id="line2d_25">
      <path d="M 49.842188 41.350605 
L 607.842188 41.350605 
" clip-path="url(#p7e4feadb7e)" style="fill: none; stroke: #b0b0b0; stroke-opacity: 0.3; stroke-width: 0.8; stroke-linecap: square"/>
     </g>
     <g id="line2d_26">
      <g>
       <use xlink:href="#m7c1980770b" x="49.842188" y="41.350605" style="stroke: #000000; stroke-width: 0.8"/>
      </g>
     </g>
     <g id="text_18">
      <!-- 140 -->
      <g transform="translate(21.845938 45.529746) scale(0.11 -0.11)">
       <use xlink:href="#DejaVuSans-31"/>
       <use xlink:href="#DejaVuSans-34" x="63.623047"/>
       <use xlink:href="#DejaVuSans-30" x="127.246094"/>
      </g>
     </g>
    </g>
    <g id="text_19">
     <!-- LOC -->
     <g transform="translate(15.558281 172.865172) rotate(-90) scale(0.11 -0.11)">
      <defs>
       <path id="DejaVuSans-4c" d="M 628 4666 
L 1259 4666 
L 1259 531 
L 3531 531 
L 3531 0 
L 628 0 
L 628 4666 
z
" transform="scale(0.015625)"/>
       <path id="DejaVuSans-4f" d="M 2522 4238 
Q 1834 4238 1429 3725 
Q 1025 3213 1025 2328 
Q 1025 1447 1429 934 
Q 1834 422 2522 422 
Q 3209 422 3611 934 
Q 4013 1447 4013 2328 
Q 4013 3213 3611 3725 
Q 3209 4238 2522 4238 
z
M 2522 4750 
Q 3503 4750 4090 4092 
Q 4678 3434 4678 2328 
Q 4678 1225 4090 567 
Q 3503 -91 2522 -91 
Q 1538 -91 948 565 
Q 359 1222 359 2328 
Q 359 3434 948 4092 
Q 1538 4750 2522 4750 
z
" transform="scale(0.015625)"/>
       <path id="DejaVuSans-43" d="M 4122 4306 
L 4122 3641 
Q 3803 3938 3442 4084 
Q 3081 4231 2675 4231 
Q 1875 4231 1450 3742 
Q 1025 3253 1025 2328 
Q 1025 1406 1450 917 
Q 1875 428 2675 428 
Q 3081 428 3442 575 
Q 3803 722 4122 1019 
L 4122 359 
Q 3791 134 3420 21 
Q 3050 -91 2638 -91 
Q 1578 -91 968 557 
Q 359 1206 359 2328 
Q 359 3453 968 4101 
Q 1578 4750 2638 4750 
Q 3056 4750 3426 4639 
Q 3797 4528 4122 4306 
z
" transform="scale(0.015625)"/>
      </defs>
      <use xlink:href="#DejaVuSans-4c"/>
      <use xlink:href="#DejaVuSans-4f" x="52.087891"/>
      <use xlink:href="#DejaVuSans-43" x="130.798828"/>
     </g>
    </g>
   </g>
   <g id="LineCollection_1">
    <path d="M 79.107922 77.268412 
L 79.107922 56.940237 
" clip-path="url(#p7e4feadb7e)" style="fill: none; stroke: #000000; stroke-width: 1.5"/>
    <path d="M 131.135894 77.970526 
L 131.135894 51.765921 
" clip-path="url(#p7e4feadb7e)" style="fill: none; stroke: #000000; stroke-width: 1.5"/>
    <path d="M 183.163866 78.530614 
L 183.163866 49.38879 
" clip-path="url(#p7e4feadb7e)" style="fill: none; stroke: #000000; stroke-width: 1.5"/>
    <path d="M 235.191838 80.424581 
L 235.191838 55.634635 
" clip-path="url(#p7e4feadb7e)" style="fill: none; stroke: #000000; stroke-width: 1.5"/>
    <path d="M 287.21981 72.919433 
L 287.21981 36.429937 
" clip-path="url(#p7e4feadb7e)" style="fill: none; stroke: #000000; stroke-width: 1.5"/>
    <path d="M 339.247782 76.782853 
L 339.247782 57.117368 
" clip-path="url(#p7e4feadb7e)" style="fill: none; stroke: #000000; stroke-width: 1.5"/>
    <path d="M 391.275754 84.87953 
L 391.275754 53.647108 
" clip-path="url(#p7e4feadb7e)" style="fill: none; stroke: #000000; stroke-width: 1.5"/>
    <path d="M 443.303726 80.346864 
L 443.303726 51.98318 
" clip-path="url(#p7e4feadb7e)" style="fill: none; stroke: #000000; stroke-width: 1.5"/>
    <path d="M 495.331698 91.839225 
L 495.331698 55.477605 
" clip-path="url(#p7e4feadb7e)" style="fill: none; stroke: #000000; stroke-width: 1.5"/>
    <path d="M 547.35967 78.752541 
L 547.35967 52.988686 
" clip-path="url(#p7e4feadb7e)" style="fill: none; stroke: #000000; stroke-width: 1.5"/>
   </g>
   <g id="line2d_27">
    <defs>
     <path id="mdfec7d5bb8" d="M 3 0 
L -3 -0 
" style="stroke: #000000"/>
    </defs>
    <g clip-path="url(#p7e4feadb7e)">
     <use xlink:href="#mdfec7d5bb8" x="79.107922" y="77.268412" style="stroke: #000000"/>
     <use xlink:href="#mdfec7d5bb8" x="131.135894" y="77.970526" style="stroke: #000000"/>
     <use xlink:href="#mdfec7d5bb8" x="183.163866" y="78.530614" style="stroke: #000000"/>
     <use xlink:href="#mdfec7d5bb8" x="235.191838" y="80.424581" style="stroke: #000000"/>
     <use xlink:href="#mdfec7d5bb8" x="287.21981" y="72.919433" style="stroke: #000000"/>
     <use xlink:href="#mdfec7d5bb8" x="339.247782" y="76.782853" style="stroke: #000000"/>
     <use xlink:href="#mdfec7d5bb8" x="391.275754" y="84.87953" style="stroke: #000000"/>
     <use xlink:href="#mdfec7d5bb8" x="443.303726" y="80.346864" style="stroke: #000000"/>
     <use xlink:href="#mdfec7d5bb8" x="495.331698" y="91.839225" style="stroke: #000000"/>
     <use xlink:href="#mdfec7d5bb8" x="547.35967" y="78.752541" style="stroke: #000000"/>
    </g>
   </g>
   <g id="line2d_28">
    <g clip-path="url(#p7e4feadb7e)">
     <use xlink:href="#mdfec7d5bb8" x="79.107922" y="56.940237" style="stroke: #000000"/>
     <use xlink:href="#mdfec7d5bb8" x="131.135894" y="51.765921" style="stroke: #000000"/>
     <use xlink:href="#mdfec7d5bb8" x="183.163866" y="49.38879" style="stroke: #000000"/>
     <use xlink:href="#mdfec7d5bb8" x="235.191838" y="55.634635" style="stroke: #000000"/>
     <use xlink:href="#mdfec7d5bb8" x="287.21981" y="36.429937" style="stroke: #000000"/>
     <use xlink:href="#mdfec7d5bb8" x="339.247782" y="57.117368" style="stroke: #000000"/>
     <use xlink:href="#mdfec7d5bb8" x="391.275754" y="53.647108" style="stroke: #000000"/>
     <use xlink:href="#mdfec7d5bb8" x="443.303726" y="51.98318" style="stroke: #000000"/>
     <use xlink:href="#mdfec7d5bb8" x="495.331698" y="55.477605" style="stroke: #000000"/>
     <use xlink:href="#mdfec7d5bb8" x="547.35967" y="52.988686" style="stroke: #000000"/>
    </g>
   </g>
   <g id="LineCollection_2">
    <path d="M 86.912118 78.184763 
L 86.912118 55.252817 
" clip-path="url(#p7e4feadb7e)" style="fill: none; stroke: #000000; stroke-width: 1.5"/>
    <path d="M 138.94009 78.102013 
L 138.94009 56.26085 
" clip-path="url(#p7e4feadb7e)" style="fill: none; stroke: #000000; stroke-width: 1.5"/>
    <path d="M 190.968062 77.95891 
L 190.968062 60.259301 
" clip-path="url(#p7e4feadb7e)" style="fill: none; stroke: #000000; stroke-width: 1.5"/>
    <path d="M 242.996034 78.656947 
L 242.996034 60.178119 
" clip-path="url(#p7e4feadb7e)" style="fill: none; stroke: #000000; stroke-width: 1.5"/>
    <path d="M 295.024006 72.578001 
L 295.024006 51.575903 
" clip-path="url(#p7e4feadb7e)" style="fill: none; stroke: #000000; stroke-width: 1.5"/>
    <path d="M 347.051978 77.36762 
L 347.051978 63.780655 
" clip-path="url(#p7e4feadb7e)" style="fill: none; stroke: #000000; stroke-width: 1.5"/>
    <path d="M 399.07995 75.567958 
L 399.07995 61.570755 
" clip-path="url(#p7e4feadb7e)" style="fill: none; stroke: #000000; stroke-width: 1.5"/>
    <path d="M 451.107922 79.590496 
L 451.107922 58.788634 
" clip-path="url(#p7e4feadb7e)" style="fill: none; stroke: #000000; stroke-width: 1.5"/>
    <path d="M 503.135894 77.705628 
L 503.135894 55.423525 
" clip-path="url(#p7e4feadb7e)" style="fill: none; stroke: #000000; stroke-width: 1.5"/>
    <path d="M 555.163866 78.752541 
L 555.163866 52.988686 
" clip-path="url(#p7e4feadb7e)" style="fill: none; stroke: #000000; stroke-width: 1.5"/>
   </g>
   <g id="line2d_29">
    <g clip-path="url(#p7e4feadb7e)">
     <use xlink:href="#mdfec7d5bb8" x="86.912118" y="78.184763" style="stroke: #000000"/>
     <use xlink:href="#mdfec7d5bb8" x="138.94009" y="78.102013" style="stroke: #000000"/>
     <use xlink:href="#mdfec7d5bb8" x="190.968062" y="77.95891" style="stroke: #000000"/>
     <use xlink:href="#mdfec7d5bb8" x="242.996034" y="78.656947" style="stroke: #000000"/>
     <use xlink:href="#mdfec7d5bb8" x="295.024006" y="72.578001" style="stroke: #000000"/>
     <use xlink:href="#mdfec7d5bb8" x="347.051978" y="77.36762" style="stroke: #000000"/>
     <use xlink:href="#mdfec7d5bb8" x="399.07995" y="75.567958" style="stroke: #000000"/>
     <use xlink:href="#mdfec7d5bb8" x="451.107922" y="79.590496" style="stroke: #000000"/>
     <use xlink:href="#mdfec7d5bb8" x="503.135894" y="77.705628" style="stroke: #000000"/>
     <use xlink:href="#mdfec7d5bb8" x="555.163866" y="78.752541" style="stroke: #000000"/>
    </g>
   </g>
   <g id="line2d_30">
    <g clip-path="url(#p7e4feadb7e)">
     <use xlink:href="#mdfec7d5bb8" x="86.912118" y="55.252817" style="stroke: #000000"/>
     <use xlink:href="#mdfec7d5bb8" x="138.94009" y="56.26085" style="stroke: #000000"/>
     <use xlink:href="#mdfec7d5bb8" x="190.968062" y="60.259301" style="stroke: #000000"/>
     <use xlink:href="#mdfec7d5bb8" x="242.996034" y="60.178119" style="stroke: #000000"/>
     <use xlink:href="#mdfec7d5bb8" x="295.024006" y="51.575903" style="stroke: #000000"/>
     <use xlink:href="#mdfec7d5bb8" x="347.051978" y="63.780655" style="stroke: #000000"/>
     <use xlink:href="#mdfec7d5bb8" x="399.07995" y="61.570755" style="stroke: #000000"/>
     <use xlink:href="#mdfec7d5bb8" x="451.107922" y="58.788634" style="stroke: #000000"/>
     <use xlink:href="#mdfec7d5bb8" x="503.135894" y="55.423525" style="stroke: #000000"/>
     <use xlink:href="#mdfec7d5bb8" x="555.163866" y="52.988686" style="stroke: #000000"/>
    </g>
   </g>
   <g id="LineCollection_3">
    <path d="M 94.716313 79.105035 
L 94.716313 56.954181 
" clip-path="url(#p7e4feadb7e)" style="fill: none; stroke: #000000; stroke-width: 1.5"/>
    <path d="M 146.744285 78.623722 
L 146.744285 57.743922 
" clip-path="url(#p7e4feadb7e)" style="fill: none; stroke: #000000; stroke-width: 1.5"/>
    <path d="M 198.772257 79.423904 
L 198.772257 55.864242 
" clip-path="url(#p7e4feadb7e)" style="fill: none; stroke: #000000; stroke-width: 1.5"/>
    <path d="M 250.800229 81.870037 
L 250.800229 60.820376 
" clip-path="url(#p7e4feadb7e)" style="fill: none; stroke: #000000; stroke-width: 1.5"/>
    <path d="M 302.828201 82.063072 
L 302.828201 82.063072 
" clip-path="url(#p7e4feadb7e)" style="fill: none; stroke: #000000; stroke-width: 1.5"/>
    <path d="M 354.856174 75.021664 
L 354.856174 60.883339 
" clip-path="url(#p7e4feadb7e)" style="fill: none; stroke: #000000; stroke-width: 1.5"/>
    <path d="M 406.884146 76.266382 
L 406.884146 51.619498 
" clip-path="url(#p7e4feadb7e)" style="fill: none; stroke: #000000; stroke-width: 1.5"/>
    <path d="M 458.912118 80.121984 
L 458.912118 56.969795 
" clip-path="url(#p7e4feadb7e)" style="fill: none; stroke: #000000; stroke-width: 1.5"/>
    <path d="M 510.94009 77.995248 
L 510.94009 55.904973 
" clip-path="url(#p7e4feadb7e)" style="fill: none; stroke: #000000; stroke-width: 1.5"/>
    <path d="M 562.968062 79.393251 
L 562.968062 52.432093 
" clip-path="url(#p7e4feadb7e)" style="fill: none; stroke: #000000; stroke-width: 1.5"/>
   </g>
   <g id="line2d_31">
    <g clip-path="url(#p7e4feadb7e)">
     <use xlink:href="#mdfec7d5bb8" x="94.716313" y="79.105035" style="stroke: #000000"/>
     <use xlink:href="#mdfec7d5bb8" x="146.744285" y="78.623722" style="stroke: #000000"/>
     <use xlink:href="#mdfec7d5bb8" x="198.772257" y="79.423904" style="stroke: #000000"/>
     <use xlink:href="#mdfec7d5bb8" x="250.800229" y="81.870037" style="stroke: #000000"/>
     <use xlink:href="#mdfec7d5bb8" x="302.828201" y="82.063072" style="stroke: #000000"/>
     <use xlink:href="#mdfec7d5bb8" x="354.856174" y="75.021664" style="stroke: #000000"/>
     <use xlink:href="#mdfec7d5bb8" x="406.884146" y="76.266382" style="stroke: #000000"/>
     <use xlink:href="#mdfec7d5bb8" x="458.912118" y="80.121984" style="stroke: #000000"/>
     <use xlink:href="#mdfec7d5bb8" x="510.94009" y="77.995248" style="stroke: #000000"/>
     <use xlink:href="#mdfec7d5bb8" x="562.968062" y="79.393251" style="stroke: #000000"/>
    </g>
   </g>
   <g id="line2d_32">
    <g clip-path="url(#p7e4feadb7e)">
     <use xlink:href="#mdfec7d5bb8" x="94.716313" y="56.954181" style="stroke: #000000"/>
     <use xlink:href="#mdfec7d5bb8" x="146.744285" y="57.743922" style="stroke: #000000"/>
     <use xlink:href="#mdfec7d5bb8" x="198.772257" y="55.864242" style="stroke: #000000"/>
     <use xlink:href="#mdfec7d5bb8" x="250.800229" y="60.820376" style="stroke: #000000"/>
     <use xlink:href="#mdfec7d5bb8" x="302.828201" y="82.063072" style="stroke: #000000"/>
     <use xlink:href="#mdfec7d5bb8" x="354.856174" y="60.883339" style="stroke: #000000"/>
     <use xlink:href="#mdfec7d5bb8" x="406.884146" y="51.619498" style="stroke: #000000"/>
     <use xlink:href="#mdfec7d5bb8" x="458.912118" y="56.969795" style="stroke: #000000"/>
     <use xlink:href="#mdfec7d5bb8" x="510.94009" y="55.904973" style="stroke: #000000"/>
     <use xlink:href="#mdfec7d5bb8" x="562.968062" y="52.432093" style="stroke: #000000"/>
    </g>
   </g>
   <g id="LineCollection_4">
    <path d="M 102.520509 85.775419 
L 102.520509 55.681283 
" clip-path="url(#p7e4feadb7e)" style="fill: none; stroke: #000000; stroke-width: 1.5"/>
    <path d="M 154.548481 78.974566 
L 154.548481 57.701505 
" clip-path="url(#p7e4feadb7e)" style="fill: none; stroke: #000000; stroke-width: 1.5"/>
    <path d="M 206.576453 78.666463 
L 206.576453 59.860175 
" clip-path="url(#p7e4feadb7e)" style="fill: none; stroke: #000000; stroke-width: 1.5"/>
    <path d="M 258.604425 80.851523 
L 258.604425 61.222035 
" clip-path="url(#p7e4feadb7e)" style="fill: none; stroke: #000000; stroke-width: 1.5"/>
    <path d="M 310.632397 79.429912 
L 310.632397 62.181004 
" clip-path="url(#p7e4feadb7e)" style="fill: none; stroke: #000000; stroke-width: 1.5"/>
    <path d="M 362.660369 76.29627 
L 362.660369 60.071374 
" clip-path="url(#p7e4feadb7e)" style="fill: none; stroke: #000000; stroke-width: 1.5"/>
    <path d="M 414.688341 76.531927 
L 414.688341 51.045525 
" clip-path="url(#p7e4feadb7e)" style="fill: none; stroke: #000000; stroke-width: 1.5"/>
    <path d="M 466.716313 78.75906 
L 466.716313 57.045368 
" clip-path="url(#p7e4feadb7e)" style="fill: none; stroke: #000000; stroke-width: 1.5"/>
    <path d="M 518.744285 101.107944 
L 518.744285 55.924361 
" clip-path="url(#p7e4feadb7e)" style="fill: none; stroke: #000000; stroke-width: 1.5"/>
    <path d="M 570.772257 76.96512 
L 570.772257 51.691829 
" clip-path="url(#p7e4feadb7e)" style="fill: none; stroke: #000000; stroke-width: 1.5"/>
   </g>
   <g id="line2d_33">
    <g clip-path="url(#p7e4feadb7e)">
     <use xlink:href="#mdfec7d5bb8" x="102.520509" y="85.775419" style="stroke: #000000"/>
     <use xlink:href="#mdfec7d5bb8" x="154.548481" y="78.974566" style="stroke: #000000"/>
     <use xlink:href="#mdfec7d5bb8" x="206.576453" y="78.666463" style="stroke: #000000"/>
     <use xlink:href="#mdfec7d5bb8" x="258.604425" y="80.851523" style="stroke: #000000"/>
     <use xlink:href="#mdfec7d5bb8" x="310.632397" y="79.429912" style="stroke: #000000"/>
     <use xlink:href="#mdfec7d5bb8" x="362.660369" y="76.29627" style="stroke: #000000"/>
     <use xlink:href="#mdfec7d5bb8" x="414.688341" y="76.531927" style="stroke: #000000"/>
     <use xlink:href="#mdfec7d5bb8" x="466.716313" y="78.75906" style="stroke: #000000"/>
     <use xlink:href="#mdfec7d5bb8" x="518.744285" y="101.107944" style="stroke: #000000"/>
     <use xlink:href="#mdfec7d5bb8" x="570.772257" y="76.96512" style="stroke: #000000"/>
    </g>
   </g>
   <g id="line2d_34">
    <g clip-path="url(#p7e4feadb7e)">
     <use xlink:href="#mdfec7d5bb8" x="102.520509" y="55.681283" style="stroke: #000000"/>
     <use xlink:href="#mdfec7d5bb8" x="154.548481" y="57.701505" style="stroke: #000000"/>
     <use xlink:href="#mdfec7d5bb8" x="206.576453" y="59.860175" style="stroke: #000000"/>
     <use xlink:href="#mdfec7d5bb8" x="258.604425" y="61.222035" style="stroke: #000000"/>
     <use xlink:href="#mdfec7d5bb8" x="310.632397" y="62.181004" style="stroke: #000000"/>
     <use xlink:href="#mdfec7d5bb8" x="362.660369" y="60.071374" style="stroke: #000000"/>
     <use xlink:href="#mdfec7d5bb8" x="414.688341" y="51.045525" style="stroke: #000000"/>
     <use xlink:href="#mdfec7d5bb8" x="466.716313" y="57.045368" style="stroke: #000000"/>
     <use xlink:href="#mdfec7d5bb8" x="518.744285" y="55.924361" style="stroke: #000000"/>
     <use xlink:href="#mdfec7d5bb8" x="570.772257" y="51.691829" style="stroke: #000000"/>
    </g>
   </g>
   <g id="LineCollection_5">
    <path d="M 110.324705 300.429937 
L 110.324705 300.429937 
" clip-path="url(#p7e4feadb7e)" style="fill: none; stroke: #000000; stroke-width: 1.5"/>
    <path d="M 162.352677 79.792108 
L 162.352677 63.550748 
" clip-path="url(#p7e4feadb7e)" style="fill: none; stroke: #000000; stroke-width: 1.5"/>
    <path d="M 214.380649 79.10607 
L 214.380649 57.724216 
" clip-path="url(#p7e4feadb7e)" style="fill: none; stroke: #000000; stroke-width: 1.5"/>
    <path d="M 266.408621 67.324296 
L 266.408621 54.238814 
" clip-path="url(#p7e4feadb7e)" style="fill: none; stroke: #000000; stroke-width: 1.5"/>
    <path d="M 318.436593 80.311313 
L 318.436593 50.504631 
" clip-path="url(#p7e4feadb7e)" style="fill: none; stroke: #000000; stroke-width: 1.5"/>
    <path d="M 370.464565 76.534394 
L 370.464565 61.375389 
" clip-path="url(#p7e4feadb7e)" style="fill: none; stroke: #000000; stroke-width: 1.5"/>
    <path d="M 422.492537 75.903453 
L 422.492537 53.67878 
" clip-path="url(#p7e4feadb7e)" style="fill: none; stroke: #000000; stroke-width: 1.5"/>
    <path d="M 474.520509 80.543621 
L 474.520509 58.599873 
" clip-path="url(#p7e4feadb7e)" style="fill: none; stroke: #000000; stroke-width: 1.5"/>
    <path d="M 526.548481 77.969477 
L 526.548481 55.622317 
" clip-path="url(#p7e4feadb7e)" style="fill: none; stroke: #000000; stroke-width: 1.5"/>
    <path d="M 578.576453 79.518447 
L 578.576453 57.21931 
" clip-path="url(#p7e4feadb7e)" style="fill: none; stroke: #000000; stroke-width: 1.5"/>
   </g>
   <g id="line2d_35">
    <g clip-path="url(#p7e4feadb7e)">
     <use xlink:href="#mdfec7d5bb8" x="110.324705" y="300.429937" style="stroke: #000000"/>
     <use xlink:href="#mdfec7d5bb8" x="162.352677" y="79.792108" style="stroke: #000000"/>
     <use xlink:href="#mdfec7d5bb8" x="214.380649" y="79.10607" style="stroke: #000000"/>
     <use xlink:href="#mdfec7d5bb8" x="266.408621" y="67.324296" style="stroke: #000000"/>
     <use xlink:href="#mdfec7d5bb8" x="318.436593" y="80.311313" style="stroke: #000000"/>
     <use xlink:href="#mdfec7d5bb8" x="370.464565" y="76.534394" style="stroke: #000000"/>
     <use xlink:href="#mdfec7d5bb8" x="422.492537" y="75.903453" style="stroke: #000000"/>
     <use xlink:href="#mdfec7d5bb8" x="474.520509" y="80.543621" style="stroke: #000000"/>
     <use xlink:href="#mdfec7d5bb8" x="526.548481" y="77.969477" style="stroke: #000000"/>
     <use xlink:href="#mdfec7d5bb8" x="578.576453" y="79.518447" style="stroke: #000000"/>
    </g>
   </g>
   <g id="line2d_36">
    <g clip-path="url(#p7e4feadb7e)">
     <use xlink:href="#mdfec7d5bb8" x="110.324705" y="300.429937" style="stroke: #000000"/>
     <use xlink:href="#mdfec7d5bb8" x="162.352677" y="63.550748" style="stroke: #000000"/>
     <use xlink:href="#mdfec7d5bb8" x="214.380649" y="57.724216" style="stroke: #000000"/>
     <use xlink:href="#mdfec7d5bb8" x="266.408621" y="54.238814" style="stroke: #000000"/>
     <use xlink:href="#mdfec7d5bb8" x="318.436593" y="50.504631" style="stroke: #000000"/>
     <use xlink:href="#mdfec7d5bb8" x="370.464565" y="61.375389" style="stroke: #000000"/>
     <use xlink:href="#mdfec7d5bb8" x="422.492537" y="53.67878" style="stroke: #000000"/>
     <use xlink:href="#mdfec7d5bb8" x="474.520509" y="58.599873" style="stroke: #000000"/>
     <use xlink:href="#mdfec7d5bb8" x="526.548481" y="55.622317" style="stroke: #000000"/>
     <use xlink:href="#mdfec7d5bb8" x="578.576453" y="57.21931" style="stroke: #000000"/>
    </g>
   </g>
   <g id="patch_53">
    <path d="M 49.842188 300.429937 
L 49.842188 23.229938 
" style="fill: none; stroke: #000000; stroke-width: 0.8; stroke-linejoin: miter; stroke-linecap: square"/>
   </g>
   <g id="patch_54">
    <path d="M 49.842188 300.429937 
L 607.842188 300.429937 
" style="fill: none; stroke: #000000; stroke-width: 0.8; stroke-linejoin: miter; stroke-linecap: square"/>
   </g>
   <g id="text_20">
    <!-- Lines of Code by Model × Condition (A-Type Scenarios) -->
    <g transform="translate(148.085719 17.229938) scale(0.132 -0.132)">
     <defs>
      <path id="DejaVuSans-20" transform="scale(0.015625)"/>
      <path id="DejaVuSans-79" d="M 2059 -325 
Q 1816 -950 1584 -1140 
Q 1353 -1331 966 -1331 
L 506 -1331 
L 506 -850 
L 844 -850 
Q 1081 -850 1212 -737 
Q 1344 -625 1503 -206 
L 1606 56 
L 191 3500 
L 800 3500 
L 1894 763 
L 2988 3500 
L 3597 3500 
L 2059 -325 
z
" transform="scale(0.015625)"/>
      <path id="DejaVuSans-4d" d="M 628 4666 
L 1569 4666 
L 2759 1491 
L 3956 4666 
L 4897 4666 
L 4897 0 
L 4281 0 
L 4281 4097 
L 3078 897 
L 2444 897 
L 1241 4097 
L 1241 0 
L 628 0 
L 628 4666 
z
" transform="scale(0.015625)"/>
      <path id="DejaVuSans-d7" d="M 4488 3438 
L 3059 2003 
L 4488 575 
L 4116 197 
L 2681 1631 
L 1247 197 
L 878 575 
L 2303 2003 
L 878 3438 
L 1247 3816 
L 2681 2381 
L 4116 3816 
L 4488 3438 
z
" transform="scale(0.015625)"/>
      <path id="DejaVuSans-28" d="M 1984 4856 
Q 1566 4138 1362 3434 
Q 1159 2731 1159 2009 
Q 1159 1288 1364 580 
Q 1569 -128 1984 -844 
L 1484 -844 
Q 1016 -109 783 600 
Q 550 1309 550 2009 
Q 550 2706 781 3412 
Q 1013 4119 1484 4856 
L 1984 4856 
z
" transform="scale(0.015625)"/>
      <path id="DejaVuSans-41" d="M 2188 4044 
L 1331 1722 
L 3047 1722 
L 2188 4044 
z
M 1831 4666 
L 2547 4666 
L 4325 0 
L 3669 0 
L 3244 1197 
L 1141 1197 
L 716 0 
L 50 0 
L 1831 4666 
z
" transform="scale(0.015625)"/>
      <path id="DejaVuSans-2d" d="M 313 2009 
L 1997 2009 
L 1997 1497 
L 313 1497 
L 313 2009 
z
" transform="scale(0.015625)"/>
      <path id="DejaVuSans-54" d="M -19 4666 
L 3928 4666 
L 3928 4134 
L 2272 4134 
L 2272 0 
L 1638 0 
L 1638 4134 
L -19 4134 
L -19 4666 
z
" transform="scale(0.015625)"/>
      <path id="DejaVuSans-53" d="M 3425 4513 
L 3425 3897 
Q 3066 4069 2747 4153 
Q 2428 4238 2131 4238 
Q 1616 4238 1336 4038 
Q 1056 3838 1056 3469 
Q 1056 3159 1242 3001 
Q 1428 2844 1947 2747 
L 2328 2669 
Q 3034 2534 3370 2195 
Q 3706 1856 3706 1288 
Q 3706 609 3251 259 
Q 2797 -91 1919 -91 
Q 1588 -91 1214 -16 
Q 841 59 441 206 
L 441 856 
Q 825 641 1194 531 
Q 1563 422 1919 422 
Q 2459 422 2753 634 
Q 3047 847 3047 1241 
Q 3047 1584 2836 1778 
Q 2625 1972 2144 2069 
L 1759 2144 
Q 1053 2284 737 2584 
Q 422 2884 422 3419 
Q 422 4038 858 4394 
Q 1294 4750 2059 4750 
Q 2388 4750 2728 4690 
Q 3069 4631 3425 4513 
z
" transform="scale(0.015625)"/>
      <path id="DejaVuSans-29" d="M 513 4856 
L 1013 4856 
Q 1481 4119 1714 3412 
Q 1947 2706 1947 2009 
Q 1947 1309 1714 600 
Q 1481 -109 1013 -844 
L 513 -844 
Q 928 -128 1133 580 
Q 1338 1288 1338 2009 
Q 1338 2731 1133 3434 
Q 928 4138 513 4856 
z
" transform="scale(0.015625)"/>
     </defs>
     <use xlink:href="#DejaVuSans-4c"/>
     <use xlink:href="#DejaVuSans-69" x="55.712891"/>
     <use xlink:href="#DejaVuSans-6e" x="83.496094"/>
     <use xlink:href="#DejaVuSans-65" x="146.875"/>
     <use xlink:href="#DejaVuSans-73" x="208.398438"/>
     <use xlink:href="#DejaVuSans-20" x="260.498047"/>
     <use xlink:href="#DejaVuSans-6f" x="292.285156"/>
     <use xlink:href="#DejaVuSans-66" x="353.466797"/>
     <use xlink:href="#DejaVuSans-20" x="388.671875"/>
     <use xlink:href="#DejaVuSans-43" x="420.458984"/>
     <use xlink:href="#DejaVuSans-6f" x="490.283203"/>
     <use xlink:href="#DejaVuSans-64" x="551.464844"/>
     <use xlink:href="#DejaVuSans-65" x="614.941406"/>
     <use xlink:href="#DejaVuSans-20" x="676.464844"/>
     <use xlink:href="#DejaVuSans-62" x="708.251953"/>
     <use xlink:href="#DejaVuSans-79" x="771.728516"/>
     <use xlink:href="#DejaVuSans-20" x="830.908203"/>
     <use xlink:href="#DejaVuSans-4d" x="862.695312"/>
     <use xlink:href="#DejaVuSans-6f" x="948.974609"/>
     <use xlink:href="#DejaVuSans-64" x="1010.15625"/>
     <use xlink:href="#DejaVuSans-65" x="1073.632812"/>
     <use xlink:href="#DejaVuSans-6c" x="1135.15625"/>
     <use xlink:href="#DejaVuSans-20" x="1162.939453"/>
     <use xlink:href="#DejaVuSans-d7" x="1194.726562"/>
     <use xlink:href="#DejaVuSans-20" x="1278.515625"/>
     <use xlink:href="#DejaVuSans-43" x="1310.302734"/>
     <use xlink:href="#DejaVuSans-6f" x="1380.126953"/>
     <use xlink:href="#DejaVuSans-6e" x="1441.308594"/>
     <use xlink:href="#DejaVuSans-64" x="1504.6875"/>
     <use xlink:href="#DejaVuSans-69" x="1568.164062"/>
     <use xlink:href="#DejaVuSans-74" x="1595.947266"/>
     <use xlink:href="#DejaVuSans-69" x="1635.15625"/>
     <use xlink:href="#DejaVuSans-6f" x="1662.939453"/>
     <use xlink:href="#DejaVuSans-6e" x="1724.121094"/>
     <use xlink:href="#DejaVuSans-20" x="1787.5"/>
     <use xlink:href="#DejaVuSans-28" x="1819.287109"/>
     <use xlink:href="#DejaVuSans-41" x="1858.300781"/>
     <use xlink:href="#DejaVuSans-2d" x="1924.458984"/>
     <use xlink:href="#DejaVuSans-54" x="1951.417969"/>
     <use xlink:href="#DejaVuSans-79" x="1996.876953"/>
     <use xlink:href="#DejaVuSans-70" x="2056.056641"/>
     <use xlink:href="#DejaVuSans-65" x="2119.533203"/>
     <use xlink:href="#DejaVuSans-20" x="2181.056641"/>
     <use xlink:href="#DejaVuSans-53" x="2212.84375"/>
     <use xlink:href="#DejaVuSans-63" x="2276.320312"/>
     <use xlink:href="#DejaVuSans-65" x="2331.300781"/>
     <use xlink:href="#DejaVuSans-6e" x="2392.824219"/>
     <use xlink:href="#DejaVuSans-61" x="2456.203125"/>
     <use xlink:href="#DejaVuSans-72" x="2517.482422"/>
     <use xlink:href="#DejaVuSans-69" x="2558.595703"/>
     <use xlink:href="#DejaVuSans-6f" x="2586.378906"/>
     <use xlink:href="#DejaVuSans-73" x="2647.560547"/>
     <use xlink:href="#DejaVuSans-29" x="2699.660156"/>
    </g>
   </g>
   <g id="legend_1">
    <g id="patch_55">
     <path d="M 496.552969 96.4815 
L 601.542188 96.4815 
Q 603.342188 96.4815 603.342188 94.6815 
L 603.342188 29.529938 
Q 603.342188 27.729938 601.542188 27.729938 
L 496.552969 27.729938 
Q 494.752969 27.729938 494.752969 29.529938 
L 494.752969 94.6815 
Q 494.752969 96.4815 496.552969 96.4815 
z
" style="fill: #ffffff; opacity: 0.8; stroke: #cccccc; stroke-linejoin: miter"/>
    </g>
    <g id="patch_56">
     <path d="M 498.352969 38.168531 
L 516.352969 38.168531 
L 516.352969 31.868531 
L 498.352969 31.868531 
z
" style="fill: #9c9a91; opacity: 0.85"/>
    </g>
    <g id="text_21">
     <!-- Control -->
     <g transform="translate(523.552969 38.168531) scale(0.09 -0.09)">
      <use xlink:href="#DejaVuSans-43"/>
      <use xlink:href="#DejaVuSans-6f" x="69.824219"/>
      <use xlink:href="#DejaVuSans-6e" x="131.005859"/>
      <use xlink:href="#DejaVuSans-74" x="194.384766"/>
      <use xlink:href="#DejaVuSans-72" x="233.59375"/>
      <use xlink:href="#DejaVuSans-6f" x="272.457031"/>
      <use xlink:href="#DejaVuSans-6c" x="333.638672"/>
     </g>
    </g>
    <g id="patch_57">
     <path d="M 498.352969 51.378844 
L 516.352969 51.378844 
L 516.352969 45.078844 
L 498.352969 45.078844 
z
" style="fill: #6a9bcc; opacity: 0.85"/>
    </g>
    <g id="text_22">
     <!-- Baseline Concise -->
     <g transform="translate(523.552969 51.378844) scale(0.09 -0.09)">
      <defs>
       <path id="DejaVuSans-42" d="M 1259 2228 
L 1259 519 
L 2272 519 
Q 2781 519 3026 730 
Q 3272 941 3272 1375 
Q 3272 1813 3026 2020 
Q 2781 2228 2272 2228 
L 1259 2228 
z
M 1259 4147 
L 1259 2741 
L 2194 2741 
Q 2656 2741 2882 2914 
Q 3109 3088 3109 3444 
Q 3109 3797 2882 3972 
Q 2656 4147 2194 4147 
L 1259 4147 
z
M 628 4666 
L 2241 4666 
Q 2963 4666 3353 4366 
Q 3744 4066 3744 3513 
Q 3744 3084 3544 2831 
Q 3344 2578 2956 2516 
Q 3422 2416 3680 2098 
Q 3938 1781 3938 1306 
Q 3938 681 3513 340 
Q 3088 0 2303 0 
L 628 0 
L 628 4666 
z
" transform="scale(0.015625)"/>
      </defs>
      <use xlink:href="#DejaVuSans-42"/>
      <use xlink:href="#DejaVuSans-61" x="68.603516"/>
      <use xlink:href="#DejaVuSans-73" x="129.882812"/>
      <use xlink:href="#DejaVuSans-65" x="181.982422"/>
      <use xlink:href="#DejaVuSans-6c" x="243.505859"/>
      <use xlink:href="#DejaVuSans-69" x="271.289062"/>
      <use xlink:href="#DejaVuSans-6e" x="299.072266"/>
      <use xlink:href="#DejaVuSans-65" x="362.451172"/>
      <use xlink:href="#DejaVuSans-20" x="423.974609"/>
      <use xlink:href="#DejaVuSans-43" x="455.761719"/>
      <use xlink:href="#DejaVuSans-6f" x="525.585938"/>
      <use xlink:href="#DejaVuSans-6e" x="586.767578"/>
      <use xlink:href="#DejaVuSans-63" x="650.146484"/>
      <use xlink:href="#DejaVuSans-69" x="705.126953"/>
      <use xlink:href="#DejaVuSans-73" x="732.910156"/>
      <use xlink:href="#DejaVuSans-65" x="785.009766"/>
     </g>
    </g>
    <g id="patch_58">
     <path d="M 498.352969 64.589156 
L 516.352969 64.589156 
L 516.352969 58.289156 
L 498.352969 58.289156 
z
" style="fill: #b0aea5; opacity: 0.85"/>
    </g>
    <g id="text_23">
     <!-- Moyu Lite -->
     <g transform="translate(523.552969 64.589156) scale(0.09 -0.09)">
      <use xlink:href="#DejaVuSans-4d"/>
      <use xlink:href="#DejaVuSans-6f" x="86.279297"/>
      <use xlink:href="#DejaVuSans-79" x="147.460938"/>
      <use xlink:href="#DejaVuSans-75" x="206.640625"/>
      <use xlink:href="#DejaVuSans-20" x="270.019531"/>
      <use xlink:href="#DejaVuSans-4c" x="301.806641"/>
      <use xlink:href="#DejaVuSans-69" x="357.519531"/>
      <use xlink:href="#DejaVuSans-74" x="385.302734"/>
      <use xlink:href="#DejaVuSans-65" x="424.511719"/>
     </g>
    </g>
    <g id="patch_59">
     <path d="M 498.352969 77.799469 
L 516.352969 77.799469 
L 516.352969 71.499469 
L 498.352969 71.499469 
z
" style="fill: #d97757; opacity: 0.85"/>
    </g>
    <g id="text_24">
     <!-- Moyu Standard -->
     <g transform="translate(523.552969 77.799469) scale(0.09 -0.09)">
      <use xlink:href="#DejaVuSans-4d"/>
      <use xlink:href="#DejaVuSans-6f" x="86.279297"/>
      <use xlink:href="#DejaVuSans-79" x="147.460938"/>
      <use xlink:href="#DejaVuSans-75" x="206.640625"/>
      <use xlink:href="#DejaVuSans-20" x="270.019531"/>
      <use xlink:href="#DejaVuSans-53" x="301.806641"/>
      <use xlink:href="#DejaVuSans-74" x="365.283203"/>
      <use xlink:href="#DejaVuSans-61" x="404.492188"/>
      <use xlink:href="#DejaVuSans-6e" x="465.771484"/>
      <use xlink:href="#DejaVuSans-64" x="529.150391"/>
      <use xlink:href="#DejaVuSans-61" x="592.626953"/>
      <use xlink:href="#DejaVuSans-72" x="653.90625"/>
      <use xlink:href="#DejaVuSans-64" x="693.269531"/>
     </g>
    </g>
    <g id="patch_60">
     <path d="M 498.352969 91.009781 
L 516.352969 91.009781 
L 516.352969 84.709781 
L 498.352969 84.709781 
z
" style="fill: #141413; opacity: 0.85"/>
    </g>
    <g id="text_25">
     <!-- Moyu Strict -->
     <g transform="translate(523.552969 91.009781) scale(0.09 -0.09)">
      <use xlink:href="#DejaVuSans-4d"/>
      <use xlink:href="#DejaVuSans-6f" x="86.279297"/>
      <use xlink:href="#DejaVuSans-79" x="147.460938"/>
      <use xlink:href="#DejaVuSans-75" x="206.640625"/>
      <use xlink:href="#DejaVuSans-20" x="270.019531"/>
      <use xlink:href="#DejaVuSans-53" x="301.806641"/>
      <use xlink:href="#DejaVuSans-74" x="365.283203"/>
      <use xlink:href="#DejaVuSans-72" x="404.492188"/>
      <use xlink:href="#DejaVuSans-69" x="445.605469"/>
      <use xlink:href="#DejaVuSans-63" x="473.388672"/>
      <use xlink:href="#DejaVuSans-74" x="528.369141"/>
     </g>
    </g>
   </g>
  </g>
 </g>
 <defs>
  <clipPath id="p7e4feadb7e">
   <rect x="49.842188" y="23.229938" width="558" height="277.2"/>
  </clipPath>
 </defs>
</svg>
